<?xml version="1.0" encoding="utf-8"?>
<!-- Generator: Adobe Illustrator 27.5.0, SVG Export Plug-In . SVG Version: 6.00 Build 0)  -->
<svg version="1.1" id="Layer_1" xmlns="http://www.w3.org/2000/svg" xmlns:xlink="http://www.w3.org/1999/xlink" x="0px" y="0px"
	 viewBox="0 0 4000 4000" style="enable-background:new 0 0 4000 4000;" xml:space="preserve">
<g>
	<rect style="fill:#FFFFFF;" width="4000" height="4000"/>
	<g>
		<g>
			<circle style="fill:#3D3144;" cx="2000" cy="1733.647" r="1153.647"/>
		</g>
		<g>
			<g>
				<path style="fill:#61ED46;" d="M2889.249,1258.779h-222.1c-8.56,0-15.493-6.938-15.493-15.496
					c0-8.557,6.934-15.496,15.493-15.496h222.1c8.56,0,15.493,6.939,15.493,15.496
					C2904.742,1251.84,2897.808,1258.779,2889.249,1258.779z"/>
			</g>
			<g>
				<path style="fill:#61ED46;" d="M2452.799,1258.779h-909.375c-8.559,0-15.493-6.938-15.493-15.496
					c0-8.557,6.934-15.496,15.493-15.496h909.375c8.56,0,15.493,6.939,15.493,15.496
					C2468.292,1251.84,2461.358,1258.779,2452.799,1258.779z"/>
			</g>
			<g>
				<path style="fill:#61ED46;" d="M1399.967,1258.779h-251.367c-8.559,0-15.493-6.938-15.493-15.496
					c0-8.557,6.934-15.496,15.493-15.496h251.367c8.56,0,15.493,6.939,15.493,15.496
					C1415.46,1251.84,1408.526,1258.779,1399.967,1258.779z"/>
			</g>
			<g>
				<path style="fill:#61ED46;" d="M2889.249,1387.907H2698.14c-8.56,0-15.493-6.938-15.493-15.496s6.934-15.496,15.493-15.496
					h191.108c8.56,0,15.493,6.938,15.493,15.496S2897.808,1387.907,2889.249,1387.907z"/>
			</g>
			<g>
				<path style="fill:#61ED46;" d="M2581.065,1387.907H1439.014c-8.56,0-15.493-6.938-15.493-15.496s6.934-15.496,15.493-15.496
					h1142.051c8.56,0,15.493,6.938,15.493,15.496S2589.625,1387.907,2581.065,1387.907z"/>
			</g>
			<g>
				<path style="fill:#61ED46;" d="M1280.518,1387.907h-131.919c-8.559,0-15.493-6.938-15.493-15.496s6.934-15.496,15.493-15.496
					h131.919c8.559,0,15.493,6.938,15.493,15.496S1289.078,1387.907,1280.518,1387.907z"/>
			</g>
			<g>
				<path style="fill:#61ED46;" d="M2889.249,1517.035h-1740.65c-8.559,0-15.493-6.938-15.493-15.496
					c0-8.557,6.934-15.496,15.493-15.496h1740.65c8.56,0,15.493,6.938,15.493,15.496
					C2904.742,1510.097,2897.808,1517.035,2889.249,1517.035z"/>
			</g>
			<g>
				<path style="fill:#61ED46;" d="M2889.249,1646.164H1417.188c-8.56,0-15.493-6.939-15.493-15.496s6.934-15.496,15.493-15.496
					h1472.061c8.56,0,15.493,6.938,15.493,15.496S2897.808,1646.164,2889.249,1646.164z"/>
			</g>
			<g>
				<path style="fill:#61ED46;" d="M1280.518,1646.164h-131.919c-8.559,0-15.493-6.939-15.493-15.496s6.934-15.496,15.493-15.496
					h131.919c8.559,0,15.493,6.938,15.493,15.496S1289.078,1646.164,1280.518,1646.164z"/>
			</g>
			<g>
				<path style="fill:#61ED46;" d="M2889.249,1775.292h-111.05c-8.56,0-15.493-6.939-15.493-15.496
					c0-8.557,6.934-15.496,15.493-15.496h111.05c8.56,0,15.493,6.938,15.493,15.496
					C2904.742,1768.354,2897.808,1775.292,2889.249,1775.292z"/>
			</g>
			<g>
				<path style="fill:#61ED46;" d="M2667.149,1775.292h-1518.55c-8.559,0-15.493-6.939-15.493-15.496
					c0-8.557,6.934-15.496,15.493-15.496h1518.55c8.56,0,15.493,6.938,15.493,15.496
					C2682.642,1768.354,2675.709,1775.292,2667.149,1775.292z"/>
			</g>
			<g>
				<path style="fill:#61ED46;" d="M2889.249,1904.421h-1740.65c-8.559,0-15.493-6.938-15.493-15.496
					c0-8.557,6.934-15.496,15.493-15.496h1740.65c8.56,0,15.493,6.939,15.493,15.496
					C2904.742,1897.482,2897.808,1904.421,2889.249,1904.421z"/>
			</g>
			<g>
				<path style="fill:#61ED46;" d="M2889.249,2033.549h-125.332c-8.56,0-15.493-6.938-15.493-15.496
					c0-8.557,6.934-15.496,15.493-15.496h125.332c8.56,0,15.493,6.939,15.493,15.496
					C2904.742,2026.611,2897.808,2033.549,2889.249,2033.549z"/>
			</g>
			<g>
				<path style="fill:#61ED46;" d="M2632.364,2033.549H1486.055c-8.56,0-15.493-6.938-15.493-15.496
					c0-8.557,6.934-15.496,15.493-15.496h1146.309c8.56,0,15.493,6.939,15.493,15.496
					C2647.857,2026.611,2640.924,2033.549,2632.364,2033.549z"/>
			</g>
			<g>
				<path style="fill:#61ED46;" d="M1296.666,2033.549h-148.066c-8.559,0-15.493-6.938-15.493-15.496
					c0-8.557,6.934-15.496,15.493-15.496h148.066c8.56,0,15.493,6.939,15.493,15.496
					C1312.159,2026.611,1305.225,2033.549,1296.666,2033.549z"/>
			</g>
			<g>
				<path style="fill:#61ED46;" d="M2889.249,2162.68h-279.609c-8.56,0-15.493-6.938-15.493-15.496s6.934-15.496,15.493-15.496
					h279.609c8.56,0,15.493,6.938,15.493,15.496S2897.808,2162.68,2889.249,2162.68z"/>
			</g>
			<g>
				<path style="fill:#61ED46;" d="M2391.676,2162.68H1148.599c-8.559,0-15.493-6.938-15.493-15.496s6.934-15.496,15.493-15.496
					h1243.076c8.56,0,15.493,6.938,15.493,15.496S2400.235,2162.68,2391.676,2162.68z"/>
			</g>
		</g>
		<g style="opacity:0.3;">
			<path style="fill:#000072;" d="M905.958,3425.645c367.336,94.877,1820.638,94.877,2187.975,0
				c33.979-8.776,25.689-48.139-10.094-48.139H916.052C880.269,3377.505,871.979,3416.868,905.958,3425.645z"/>
		</g>
		<g>
			<path style="fill:#000072;" d="M1008.787,3372.263c41.299-8.069,82.598-10.217,123.896-11.094
				c41.296-1.128,82.595-0.53,123.894,0.083c41.299,0.479,82.595,0.601,123.894,0.522h123.896h495.579h495.579h247.791l61.946-0.017
				c20.649,0.012,41.299-0.708,61.948-1.04c41.299-0.186,82.595,0.286,123.894,11.545c2.896,0.789,4.604,3.777,3.813,6.672
				c-0.522,1.921-2.024,3.32-3.813,3.813c-41.299,11.257-82.595,11.729-123.894,11.545c-20.649-0.332-41.299-1.055-61.948-1.042
				l-61.946-0.017h-247.791h-495.579h-495.579h-123.896c-41.299-0.076-82.595,0.046-123.894,0.522
				c-41.299,0.615-82.598,1.211-123.894,0.085c-41.299-0.879-82.598-3.025-123.896-11.094c-2.896-0.566-4.783-3.372-4.219-6.267
				C1004.998,3374.285,1006.719,3372.668,1008.787,3372.263z"/>
		</g>
		<g>
			<g>
				<g>
					<path style="fill:#4D5A6A;" d="M2510.787,3265.52l6.524-0.776c181.958-21.631,306.505-194.242,269.673-373.742l-68.363-333.162
						c-31.196-152.031-164.998-261.165-320.197-261.165h-397.775h11.255H1614.13c-155.199,0-289,109.134-320.197,261.165
						l-68.363,333.162c-36.832,179.5,87.715,352.111,269.673,373.742l6.524,0.776H2510.787z"/>
				</g>
				<g>
					<path style="fill:#000072;" d="M2510.933,3268.019H1501.768l-6.816-0.791c-87.427-10.396-167.109-57.302-218.623-128.696
						c-51.509-71.392-70.903-161.794-53.208-248.032l68.359-333.162c31.294-152.485,166.987-263.162,322.651-263.162h784.292
						c155.664,0,291.353,110.676,322.646,263.162l68.364,333.162c17.695,86.24-1.704,176.646-53.213,248.037
						c-51.514,71.392-131.196,118.298-218.618,128.691L2510.933,3268.019z M1614.132,2299.177
						c-153.301,0-286.938,108.997-317.749,259.167l-68.359,333.162c-17.417,84.868,1.665,173.84,52.363,244.102
						c50.693,70.261,129.116,116.426,215.151,126.655l6.523,0.774l1008.579-0.017l6.377-0.757
						c86.035-10.229,164.453-56.392,215.146-126.65c50.698-70.261,69.785-159.233,52.368-244.106l-68.364-333.162
						c-30.811-150.171-164.443-259.167-317.744-259.167H1614.132z"/>
				</g>
			</g>
			<g style="opacity:0.3;">
				<path style="fill:#000072;" d="M2517.315,3264.77l-6.507,0.759H1501.772l-6.507-0.759
					c-116.423-13.828-209.312-89.527-251.554-189.194c46.201,41.537,105.253,69.789,172.059,77.76l6.507,0.759h1009.036l6.507-0.759
					c181.982-21.636,306.539-194.237,269.666-373.725l-68.324-333.164c-4.609-22.396-11.442-43.815-20.226-64.149
					c49.562,45.225,85.406,105.849,99.667,175.529l68.379,333.164C2823.8,3070.478,2699.243,3243.133,2517.315,3264.77z"/>
			</g>
			<g style="opacity:0.55;">
				<path style="fill:#FFFFFF;" d="M2559.72,2339.242c-37.253-14.695-77.706-22.666-119.731-22.666H1655.72
					c-155.195,0-289.024,109.103-320.204,261.152l-68.379,333.164c-28.089,136.92,37.687,269.774,151.236,334.736
					c-138.493-53.901-224.17-201.775-192.827-354.637l68.379-333.164c31.18-151.995,165.009-261.152,320.204-261.152h784.27
					C2456.636,2296.675,2511.838,2312.021,2559.72,2339.242z"/>
			</g>
			<g>
				<path style="fill:#000072;" d="M2510.787,3281.786H1501.768c-0.64,0-1.279-0.037-1.914-0.112l-6.523-0.774
					c-91.245-10.847-174.404-59.802-228.164-134.312c-53.76-74.507-73.999-168.857-55.532-258.857l68.359-333.159
					c32.598-158.862,173.965-274.163,336.138-274.163h784.292c162.168,0,303.535,115.3,336.133,274.163l68.364,333.162
					c18.467,90.002-1.777,184.353-55.537,258.86s-136.919,123.459-228.154,134.307l-6.523,0.774
					C2512.066,3281.75,2511.427,3281.786,2510.787,3281.786z M1502.73,3249.252h1007.095l5.571-0.662
					c82.212-9.775,157.158-53.892,205.605-121.035c48.447-67.146,66.689-152.173,50.044-233.284l-68.364-333.162
					c-29.507-143.796-157.466-248.167-304.258-248.167h-784.292c-146.797,0-274.756,104.37-304.263,248.167l-68.359,333.162
					c-16.646,81.108,1.592,166.135,50.039,233.279c48.452,67.148,123.394,111.265,205.615,121.04L1502.73,3249.252z"/>
			</g>
			<g>
				<g>
					<path style="fill:#4D5A6A;" d="M2585.585,2050.597c-0.976,3.796-2.006,7.646-3.037,11.387c-0.813,2.874-1.627,5.694-2.44,8.514
						c-0.325,1.084-0.596,2.115-0.976,3.199c-0.651,2.332-1.41,4.664-2.115,6.941c-0.922,2.983-1.898,5.911-2.874,8.839
						c-0.434,1.301-0.868,2.603-1.301,3.85c-1.41,4.229-2.874,8.405-4.447,12.526c-1.627,4.555-3.362,9.056-5.152,13.502
						c-1.735,4.501-3.579,8.948-5.477,13.394c-1.844,4.392-3.796,8.838-5.802,13.177c-1.898,4.229-3.85,8.405-5.856,12.581
						c-0.271,0.542-0.542,1.084-0.813,1.627c-1.844,3.904-3.796,7.754-5.802,11.604c-0.054,0.108-0.108,0.217-0.163,0.325
						c-2.169,4.284-4.392,8.459-6.67,12.689c-2.711,4.989-5.477,9.923-8.351,14.803c-1.952,3.416-3.959,6.778-5.965,10.141
						c-0.108,0.108-0.162,0.217-0.162,0.271c-2.495,4.121-5.043,8.188-7.646,12.255c-4.338,6.778-8.784,13.502-13.394,20.172
						c-2.006,2.928-4.067,5.802-6.128,8.676c-1.735,2.44-3.47,4.826-5.26,7.267c-2.657,3.633-5.369,7.212-8.08,10.791
						c-2.657,3.47-5.314,6.833-8.025,10.249c-1.518,1.898-3.036,3.796-4.555,5.639c-0.976,1.193-1.952,2.386-2.928,3.579
						c-1.844,2.169-3.633,4.338-5.477,6.507c-4.989,5.856-10.086,11.658-15.292,17.406c-2.494,2.82-5.097,5.585-7.7,8.351
						c-1.898,2.006-3.796,4.067-5.694,6.073c-2.711,2.82-5.368,5.585-8.134,8.296c-3.904,3.958-7.917,7.917-11.93,11.821
						c-3.253,3.145-6.507,6.236-9.815,9.273c-0.488,0.488-0.976,0.976-1.464,1.356c-3.362,3.199-6.778,6.29-10.249,9.381
						c-6.345,5.694-12.798,11.225-19.359,16.701c-1.627,1.356-3.254,2.711-4.935,4.121c-3.308,2.711-6.67,5.423-10.086,8.134
						c-11.821,9.381-23.913,18.437-36.277,27.167c-0.217,0.163-0.488,0.325-0.705,0.488c-48.207,33.946-100.643,59.161-155.086,75.7
						c-18.87,5.748-38.012,10.466-57.317,14.153c-85.514,16.268-174.119,11.984-258.007-12.743
						c-56.395-16.593-110.675-42.459-160.508-77.597c-3.905-2.765-7.809-5.585-11.713-8.405c-0.379-0.325-0.759-0.596-1.193-0.867
						c-3.85-2.874-7.7-5.748-11.496-8.622c-3.958-3.037-7.917-6.127-11.875-9.272h-0.054c-3.904-3.145-7.754-6.29-11.604-9.435
						c-3.904-3.2-7.7-6.453-11.496-9.707c-3.796-3.253-7.537-6.507-11.225-9.815c-3.742-3.362-7.429-6.67-11.062-10.086
						c-3.633-3.362-7.212-6.778-10.791-10.249c-3.579-3.416-7.104-6.886-10.574-10.411c-3.471-3.525-6.941-7.049-10.357-10.628
						c-3.416-3.633-6.833-7.266-10.249-10.953c-3.254-3.579-6.453-7.158-9.652-10.845c-2.494-2.82-4.989-5.694-7.429-8.568
						c-7.104-8.405-14.044-16.973-20.769-25.703c-2.711-3.579-5.477-7.158-8.08-10.791c-0.38-0.434-0.705-0.922-1.03-1.356
						c-1.844-2.44-3.633-4.935-5.368-7.429c-4.013-5.639-7.917-11.279-11.713-17.027c-2.115-3.145-4.23-6.345-6.236-9.544
						c-3.091-4.826-6.128-9.652-9.11-14.587c-2.061-3.471-4.176-6.995-6.236-10.52c-2.819-4.934-5.585-9.978-8.351-15.021
						c-2.006-3.796-4.013-7.592-5.965-11.387c-2.006-3.85-3.959-7.754-5.802-11.659c-0.325-0.542-0.596-1.084-0.814-1.627
						c-4.121-8.405-7.971-16.918-11.55-25.486c-0.217-0.38-0.38-0.705-0.488-1.085c-1.79-4.229-3.525-8.459-5.206-12.743
						c-1.79-4.447-3.525-8.948-5.152-13.502c-1.681-4.501-3.308-9.056-4.826-13.611c-1.139-3.362-2.278-6.778-3.362-10.195
						c-0.867-2.711-1.681-5.423-2.494-8.134c-0.38-1.193-0.759-2.44-1.085-3.633c-0.813-2.657-1.572-5.26-2.277-7.917
						c-1.085-3.904-2.115-7.809-3.145-11.767c-40.561-286.313,219.778-603.835,479.899-739.997
						c66.156-34.65,145.325-34.65,211.481,0c5.856,3.037,11.659,6.29,17.515,9.652l0.054,0.054
						C2377.412,1466.392,2625.225,1770.738,2585.585,2050.597z"/>
				</g>
				<g>
					<g style="opacity:0.4;">
						<path style="fill:#000072;" d="M2099.994,2512.96c7.371-1.914,14.719-3.935,22.013-6.156
							c54.443-16.541,106.879-41.755,155.086-75.699c0.217-0.164,0.49-0.326,0.707-0.49c12.362-8.729,24.455-17.785,36.277-27.166
							c3.416-2.711,6.778-5.423,10.085-8.134c1.681-1.408,3.307-2.764,4.935-4.12c6.561-5.478,13.014-11.009,19.358-16.702
							c3.471-3.093,6.887-6.183,10.249-9.381c0.487-0.381,0.975-0.869,1.464-1.356c3.307-3.037,6.561-6.13,9.815-9.275
							c4.011-3.903,8.023-7.861,11.928-11.82c2.767-2.711,5.423-5.478,8.134-8.298c1.898-2.004,3.797-4.067,5.695-6.071
							c2.6-2.767,5.206-5.531,7.7-8.351c5.205-5.748,10.302-11.552,15.291-17.406c1.843-2.168,3.633-4.34,5.478-6.508
							c0.974-1.194,1.951-2.385,2.928-3.58c1.517-1.843,3.034-3.741,4.554-5.637c2.711-3.418,5.367-6.778,8.025-10.25
							c2.711-3.58,5.423-7.159,8.078-10.792c1.79-2.438,3.527-4.827,5.261-7.265c2.06-2.873,4.12-5.748,6.127-8.677
							c4.61-6.67,9.055-13.392,13.395-20.171c2.603-4.067,5.15-8.134,7.644-12.256c0-0.053,0.056-0.162,0.164-0.27
							c2.004-3.363,4.011-6.725,5.966-10.141c2.873-4.88,5.64-9.815,8.351-14.803c2.277-4.231,4.499-8.404,6.667-12.688
							c0.056-0.109,0.111-0.217,0.164-0.326c2.007-3.85,3.958-7.702,5.801-11.605c0.273-0.543,0.543-1.085,0.813-1.626
							c2.007-4.175,3.961-8.351,5.857-12.582c2.007-4.337,3.961-8.785,5.804-13.175c1.896-4.448,3.741-8.894,5.476-13.395
							c1.79-4.446,3.527-8.947,5.153-13.501c1.573-4.123,3.037-8.298,4.446-12.527c0.434-1.247,0.868-2.55,1.303-3.852
							c0.974-2.926,1.951-5.854,2.873-8.838c0.704-2.277,1.464-4.607,2.115-6.94c0.379-1.085,0.651-2.115,0.977-3.201
							c0.813-2.817,1.626-5.637,2.438-8.513c1.03-3.741,2.06-7.591,3.037-11.388c39.155-276.428-202.14-576.751-452.988-724.848
							c176.462,160.504,309.983,385.391,280.116,596.387c-0.977,3.797-2.007,7.647-3.037,11.388
							c-0.813,2.875-1.628,5.693-2.441,8.512c-0.326,1.086-0.596,2.116-0.974,3.201c-0.651,2.33-1.411,4.663-2.115,6.94
							c-0.921,2.984-1.898,5.912-2.875,8.838c-0.432,1.303-0.866,2.603-1.3,3.853c-1.411,4.228-2.873,8.404-4.446,12.524
							c-1.628,4.557-3.363,9.055-5.153,13.504c-1.734,4.501-3.58,8.947-5.475,13.392c-1.846,4.393-3.797,8.841-5.804,13.178
							c-1.898,4.229-3.85,8.407-5.857,12.579c-0.27,0.543-0.54,1.086-0.813,1.628c-1.843,3.903-3.794,7.755-5.801,11.605
							c-0.056,0.106-0.108,0.217-0.164,0.323c-2.169,4.284-4.39,8.46-6.67,12.691c-2.711,4.989-5.476,9.924-8.351,14.804
							c-1.951,3.416-3.958,6.778-5.965,10.141c-0.106,0.106-0.162,0.217-0.162,0.27c-2.494,4.12-5.044,8.187-7.644,12.254
							c-4.34,6.778-8.785,13.504-13.395,20.173c-2.007,2.928-4.067,5.801-6.127,8.677c-1.737,2.439-3.471,4.824-5.261,7.266
							c-2.658,3.633-5.37,7.212-8.081,10.792c-2.656,3.469-5.312,6.831-8.023,10.247c-1.52,1.898-3.037,3.797-4.557,5.64
							c-0.977,1.194-1.951,2.385-2.928,3.58c-1.843,2.169-3.633,4.337-5.476,6.508c-4.988,5.854-10.085,11.658-15.291,17.406
							c-2.497,2.82-5.1,5.584-7.702,8.351c-1.898,2.004-3.794,4.067-5.693,6.071c-2.711,2.82-5.37,5.587-8.134,8.298
							c-3.905,3.958-7.917,7.917-11.931,11.82c-3.254,3.146-6.505,6.238-9.815,9.275c-0.487,0.487-0.974,0.974-1.462,1.356
							c-3.363,3.198-6.778,6.288-10.249,9.378c-6.347,5.695-12.797,11.227-19.36,16.702c-1.626,1.356-3.254,2.711-4.933,4.123
							c-3.31,2.711-6.67,5.423-10.088,8.134c-11.82,9.381-23.912,18.436-36.277,27.166c-0.217,0.164-0.487,0.326-0.704,0.49
							c-48.208,33.944-100.644,59.159-155.087,75.699c-18.87,5.748-38.011,10.464-57.316,14.152
							c-32.067,6.1-64.571,9.312-97.096,9.638c32.525-0.326,65.029-3.537,97.096-9.638c0.924-0.177,1.843-0.384,2.767-0.567
							c-11.693,3.037-23.462,5.735-35.302,7.996c-70.748,13.458-143.606,12.807-214.163-1.808c-0.821-0.646-1.642-1.274-2.465-1.922
							c3.884,3.082,7.771,6.119,11.653,9.098c3.797,2.875,7.647,5.748,11.497,8.624c0.434,0.27,0.815,0.54,1.194,0.866
							c3.903,2.82,7.808,5.64,11.711,8.407c49.836,35.138,104.115,61.004,160.509,77.598
							c83.889,24.725,172.493,29.009,258.007,12.741c10.091-1.928,20.133-4.152,30.121-6.641
							C2118.274,2509.139,2109.152,2511.162,2099.994,2512.96z"/>
					</g>
				</g>
				<g style="opacity:0.55;">
					<path style="fill:#FFFFFF;" d="M2216.253,1384.357c-20.009-13.556-40.236-26.191-60.462-37.849l-0.054-0.054
						c-5.856-3.362-11.658-6.616-17.515-9.652c-66.156-34.65-145.325-34.65-211.481,0
						c-260.122,136.161-520.46,453.708-479.899,740.021c1.03,3.958,2.061,7.863,3.145,11.767c0.705,2.657,1.464,5.26,2.277,7.917
						c0.325,1.193,0.705,2.44,1.085,3.633c0.813,2.711,1.627,5.423,2.494,8.134c1.085,3.416,2.224,6.833,3.362,10.195
						c1.518,4.555,3.145,9.11,4.826,13.611c1.627,4.555,3.362,9.055,5.151,13.502c1.681,4.284,3.416,8.513,5.206,12.743
						c0.108,0.38,0.271,0.705,0.488,1.085c3.579,8.568,7.429,17.081,11.55,25.486c0.217,0.542,0.488,1.084,0.813,1.627
						c1.844,3.904,3.796,7.808,5.802,11.659c1.952,3.796,3.958,7.591,5.965,11.387c2.766,5.043,5.531,10.086,8.351,15.021
						c2.061,3.524,4.176,7.049,6.236,10.52c2.982,4.934,6.019,9.761,9.11,14.587c2.006,3.199,4.121,6.398,6.236,9.544
						c3.796,5.748,7.7,11.387,11.713,17.027c1.735,2.495,3.525,4.989,5.368,7.429c0.325,0.434,0.651,0.922,1.03,1.356
						c2.603,3.633,5.368,7.212,8.08,10.791c6.724,8.73,13.665,17.298,20.769,25.703c2.44,2.874,4.935,5.748,7.429,8.568
						c3.199,3.687,6.399,7.266,9.652,10.845c3.416,3.687,6.833,7.32,10.249,10.953c3.416,3.579,6.886,7.104,10.357,10.628
						c3.471,3.524,6.995,6.995,10.574,10.411c3.579,3.47,7.158,6.887,10.791,10.249c3.633,3.417,7.32,6.724,11.062,10.086
						c3.687,3.308,7.429,6.561,11.225,9.815s7.592,6.507,11.496,9.707c3.85,3.145,7.7,6.29,11.604,9.435h0.054
						c3.958,3.145,7.917,6.236,11.875,9.272c3.525,2.657,7.104,5.314,10.682,8.025c-4.5-2.928-8.947-5.965-13.394-9.11
						c-3.904-2.765-7.809-5.585-11.713-8.405c-0.379-0.325-0.759-0.597-1.193-0.868c-3.85-2.874-7.7-5.748-11.496-8.622
						c-3.958-3.037-7.917-6.127-11.875-9.272h-0.054c-3.904-3.145-7.754-6.29-11.604-9.435c-3.904-3.199-7.7-6.453-11.496-9.707
						c-3.796-3.253-7.537-6.507-11.225-9.815c-3.742-3.362-7.429-6.67-11.062-10.086c-3.633-3.362-7.212-6.778-10.791-10.249
						c-3.579-3.416-7.104-6.887-10.574-10.411c-3.471-3.525-6.941-7.049-10.357-10.628c-3.416-3.633-6.833-7.266-10.249-10.953
						c-3.254-3.579-6.453-7.158-9.652-10.845c-2.494-2.82-4.989-5.694-7.429-8.568c-7.104-8.405-14.044-16.973-20.769-25.703
						c-2.711-3.579-5.477-7.158-8.08-10.791c-0.38-0.434-0.705-0.922-1.03-1.356c-1.844-2.44-3.633-4.934-5.368-7.429
						c-4.013-5.639-7.917-11.279-11.713-17.027c-2.115-3.145-4.23-6.345-6.236-9.544c-3.091-4.826-6.128-9.652-9.11-14.587
						c-2.061-3.47-4.176-6.995-6.236-10.52c-2.82-4.935-5.585-9.978-8.351-15.021c-2.006-3.796-4.013-7.592-5.965-11.387
						c-2.006-3.85-3.959-7.754-5.802-11.659c-0.325-0.542-0.596-1.084-0.814-1.627c-4.121-8.405-7.971-16.918-11.55-25.486
						c-0.217-0.38-0.38-0.705-0.488-1.085c-1.79-4.229-3.525-8.459-5.206-12.743c-1.789-4.447-3.525-8.947-5.151-13.502
						c-1.681-4.501-3.308-9.056-4.826-13.611c-1.139-3.362-2.278-6.778-3.362-10.194c-0.867-2.711-1.681-5.423-2.494-8.134
						c-0.38-1.193-0.759-2.44-1.085-3.633c-0.813-2.657-1.572-5.26-2.277-7.917c-1.085-3.904-2.115-7.809-3.145-11.767
						c-40.561-286.313,219.778-603.86,479.899-740.021c66.156-34.65,145.325-34.65,211.481,0c5.856,3.037,11.659,6.29,17.515,9.652
						l0.054,0.054C2158.123,1344.447,2187.459,1363.48,2216.253,1384.357z"/>
				</g>
				<g>
					<path style="fill:#000072;" d="M1999.942,2539.367c-113.994,0.005-227.964-34.297-325.186-102.888
						c-3.97-2.813-7.92-5.664-11.865-8.516c-0.205-0.146-0.405-0.3-0.601-0.457c-0.273-0.178-0.537-0.366-0.801-0.559
						c-4.092-3.059-7.866-5.876-11.582-8.689c-3.843-2.949-7.617-5.896-11.387-8.884c-0.317-0.217-0.62-0.444-0.918-0.686
						c-3.813-3.069-7.573-6.14-11.338-9.214c-4.375-3.586-8.267-6.917-12.148-10.247c-3.892-3.337-7.729-6.672-11.504-10.061
						l-0.532-0.479c-3.657-3.284-7.256-6.523-10.811-9.866c-3.628-3.357-7.3-6.86-10.972-10.42
						c-3.604-3.44-7.251-7.029-10.84-10.674c-3.677-3.733-7.134-7.246-10.537-10.815c-3.525-3.745-6.963-7.405-10.405-11.121
						c-3.447-3.792-6.733-7.463-10.015-11.243c-2.466-2.788-5.039-5.75-7.549-8.716c-7.446-8.806-14.59-17.646-21.25-26.292
						l-1.792-2.363c-2.124-2.793-4.248-5.591-6.289-8.423c-0.376-0.469-0.732-0.947-1.074-1.418
						c-2.007-2.661-3.921-5.33-5.781-7.998c-4.355-6.118-8.291-11.841-11.934-17.356c-2.139-3.179-4.351-6.523-6.445-9.866
						c-3.091-4.822-6.201-9.771-9.253-14.827l-1.914-3.215c-1.484-2.488-2.979-4.995-4.443-7.505
						c-2.798-4.897-5.469-9.756-8.135-14.614l-0.43-0.784c-2.163-4.08-4.199-7.935-6.177-11.785
						c-1.963-3.767-3.916-7.668-5.771-11.572c-0.449-0.815-0.859-1.641-1.211-2.468c-4.38-9.058-8.125-17.314-11.435-25.198
						c-0.317-0.632-0.664-1.389-0.982-2.261c-1.763-4.18-3.476-8.362-5.137-12.595c-1.812-4.512-3.628-9.214-5.327-13.972
						c-1.665-4.458-3.354-9.197-4.937-13.936c-1.147-3.389-2.319-6.902-3.438-10.415c-0.884-2.781-1.724-5.576-2.568-8.374
						c-0.371-1.174-0.811-2.627-1.191-4.016c-0.742-2.405-1.558-5.2-2.315-8.057c-1.055-3.796-2.109-7.783-3.159-11.826
						c-0.156-0.598-0.278-1.206-0.366-1.816c-24.56-173.384,57.124-333.84,129.976-437.917
						c92.061-131.521,222.724-247.71,358.486-318.774c70.938-37.153,155.635-37.153,226.572,0
						c135.762,71.065,266.426,187.256,358.486,318.774c72.852,104.077,154.536,264.534,129.976,437.917
						c-0.088,0.596-0.205,1.189-0.356,1.772c-0.996,3.882-2.051,7.82-3.105,11.648l-2.788,9.709c-0.244,0.842-0.488,1.67-0.771,2.52
						c-0.488,1.711-1.021,3.423-1.553,5.112l-0.562,1.792c-0.889,2.883-1.826,5.706-2.759,8.525l-0.215,0.64
						c-0.469,1.399-0.923,2.769-1.382,4.08c-1.416,4.246-2.959,8.638-4.609,12.971c-1.577,4.434-3.389,9.138-5.264,13.787
						c-1.709,4.443-3.628,9.067-5.596,13.689c-1.89,4.492-3.921,9.116-6.006,13.628c-1.875,4.185-3.887,8.491-5.957,12.8
						l-0.942,1.882c-1.753,3.735-3.804,7.778-5.913,11.821c-2.3,4.558-4.59,8.853-6.929,13.201
						c-2.827,5.21-5.688,10.305-8.652,15.347c-1.904,3.33-3.965,6.78-6.021,10.227c-0.024,0.037-0.044,0.073-0.068,0.11
						c-0.049,0.083-0.098,0.166-0.146,0.249c-2.563,4.236-5.186,8.418-7.861,12.598c-4.771,7.454-9.258,14.209-13.711,20.654
						c-2.036,2.974-4.165,5.94-6.289,8.906c-1.753,2.456-3.525,4.897-5.356,7.397c-2.715,3.706-5.474,7.354-8.237,11.001
						c-2.769,3.618-5.483,7.056-8.262,10.549c-1.597,2-3.164,3.958-4.736,5.862l-8.564,10.283
						c-5.107,5.991-10.361,11.97-15.63,17.786c-2.393,2.715-5.039,5.532-7.686,8.345l-5.957,6.348
						c-2.969,3.091-5.708,5.938-8.555,8.73c-3.784,3.838-7.876,7.878-11.973,11.863c-3.311,3.201-6.587,6.316-9.922,9.377
						c-0.62,0.613-1.25,1.204-1.875,1.741c-3.364,3.193-6.782,6.284-10.259,9.377c-6.738,5.994-13.379,11.724-19.746,17.036
						l-4.897,4.094c-3.521,2.888-6.953,5.654-10.43,8.416c-11.982,9.512-24.438,18.835-37.012,27.717
						c-0.098,0.068-0.42,0.291-0.601,0.415c-0.044,0.029-0.088,0.061-0.132,0.093
						C2227.344,2505.239,2113.629,2539.365,1999.942,2539.367z M1682.354,2401.886c3.726,2.693,7.456,5.383,11.182,8.022
						c182.964,129.089,428.975,129.277,612.163,0.457v0.002c0.254-0.183,0.527-0.371,0.688-0.479
						c12.07-8.525,24.028-17.48,35.537-26.614c3.345-2.656,6.641-5.315,9.883-7.971l4.824-4.031
						c6.104-5.098,12.49-10.608,18.97-16.372c3.33-2.961,6.616-5.93,9.844-9.004c0.278-0.269,0.571-0.525,0.874-0.774l0.303-0.303
						c0.166-0.164,0.337-0.325,0.508-0.483c3.203-2.942,6.353-5.935,9.502-8.979c3.896-3.792,7.832-7.671,11.65-11.548
						c2.817-2.764,5.332-5.378,7.891-8.042l5.693-6.074c2.617-2.778,5.029-5.342,7.339-7.954
						c5.186-5.725,10.22-11.458,15.103-17.188l8.169-9.805c1.528-1.858,2.998-3.694,4.468-5.53c2.622-3.301,5.22-6.587,7.817-9.978
						c2.603-3.44,5.264-6.951,7.871-10.515c1.743-2.378,3.438-4.707,5.132-7.09c2.026-2.825,4.019-5.605,5.962-8.438
						c4.272-6.182,8.55-12.625,13.11-19.749c2.524-3.943,5-7.891,7.422-11.892c0.039-0.066,0.078-0.132,0.117-0.198l0,0
						c1.958-3.276,3.911-6.55,5.815-9.878c2.876-4.893,5.552-9.666,8.174-14.492c2.183-4.053,4.346-8.108,6.45-12.268
						c0.029-0.059,0.22-0.442,0.254-0.5c1.904-3.657,3.76-7.314,5.513-11.023l1.001-2.017c1.807-3.765,3.701-7.805,5.532-11.902
						c2.012-4.346,3.887-8.616,5.659-12.83c1.851-4.346,3.623-8.618,5.288-12.939c1.802-4.478,3.457-8.777,5.01-13.125
						c1.611-4.238,3.003-8.196,4.341-12.205l1.504-4.465c0.869-2.612,1.738-5.225,2.559-7.883l0.601-1.924
						c0.474-1.514,0.957-3.044,1.387-4.575c0.093-0.347,0.2-0.688,0.322-1.028c0.156-0.454,0.278-0.896,0.405-1.34l2.71-9.419
						c0.894-3.254,1.821-6.702,2.705-10.122c17.676-126.88-26.533-273.789-124.541-413.801
						c-89.175-127.392-215.62-239.878-346.924-308.608c-61.484-32.207-134.902-32.207-196.387,0
						c-131.304,68.73-257.754,181.213-346.929,308.608c-97.998,140.005-142.202,286.909-124.541,413.784
						c0.933,3.562,1.865,7.085,2.842,10.605c0.703,2.656,1.411,5.063,2.163,7.522c0.4,1.448,0.723,2.49,1.035,3.486
						c0.854,2.839,1.646,5.464,2.481,8.091c1.06,3.335,2.173,6.653,3.276,9.917c1.479,4.443,3.042,8.816,4.653,13.137
						c1.636,4.573,3.296,8.875,5.005,13.125c1.68,4.282,3.364,8.379,5.098,12.476c0.029,0.076,0.064,0.151,0.093,0.229
						c0.151,0.305,0.293,0.615,0.42,0.918c3.198,7.659,6.86,15.728,11.187,24.673c0.103,0.215,0.205,0.432,0.298,0.652
						c0.205,0.361,0.4,0.73,0.576,1.106c1.758,3.713,3.613,7.432,5.522,11.094c1.968,3.826,3.945,7.563,5.918,11.304l0.308,0.557
						c2.583,4.7,5.161,9.397,7.788,13.999c1.338,2.285,2.783,4.712,4.219,7.119l1.88,3.159c2.847,4.712,5.811,9.417,8.823,14.124
						c1.997,3.179,4.014,6.235,6.035,9.238c3.506,5.308,7.236,10.725,11.465,16.67c1.714,2.456,3.374,4.778,5.093,7.046
						c0.073,0.1,0.405,0.554,0.479,0.657l-0.22-0.242c0.366,0.413,0.708,0.842,1.025,1.287c1.958,2.737,4.014,5.435,6.065,8.13
						l1.753,2.312c6.279,8.147,13.11,16.602,20.224,25.02c2.354,2.773,4.771,5.559,7.188,8.291c3.223,3.713,6.343,7.2,9.512,10.686
						c3.281,3.538,6.67,7.144,10.059,10.752c3.203,3.357,6.543,6.746,9.883,10.137c3.569,3.625,6.973,6.975,10.43,10.276
						c3.584,3.474,7.07,6.802,10.61,10.076c3.472,3.267,6.89,6.338,10.361,9.456l0.522,0.471c3.589,3.22,7.241,6.394,10.942,9.568
						c3.701,3.171,7.407,6.35,11.216,9.473c3.765,3.076,7.236,5.908,10.728,8.726c0.249,0.176,0.498,0.361,0.737,0.552
						c3.887,3.086,7.769,6.121,11.66,9.104c3.54,2.681,7.212,5.425,10.884,8.167
						C1681.163,2400.973,1681.763,2401.413,1682.354,2401.886z M1661.871,2427.16c0.005,0.002,0.01,0.007,0.015,0.012
						C1661.881,2427.167,1661.876,2427.162,1661.871,2427.16z M2386.695,2344.821c-0.039,0.032-0.078,0.063-0.117,0.095
						C2386.617,2344.885,2386.656,2344.853,2386.695,2344.821z M1457.501,2127.66c0.005,0.007,0.005,0.015,0.01,0.022
						C1457.506,2127.675,1457.506,2127.668,1457.501,2127.66z M1456.505,2125.19c0.005,0.005,0.005,0.007,0.01,0.012
						C1456.51,2125.197,1456.51,2125.192,1456.505,2125.19z M2585.587,2050.6h0.049H2585.587z"/>
				</g>
				<g>
					<g>
						<g>
							<g>
								<path style="fill:#FDBD91;" d="M2455.638,2132.773c-1,3.046-2.088,6.135-3.219,9.311
									c-30.152,77.229-89.281,118.388-125.089,71.79l21.363-104.9l14.532-71.312
									C2419.09,1999.505,2493.578,2016.647,2455.638,2132.773z"/>
							</g>
							<g>
								<path style="fill:#000072;" d="M2363.145,2235.473c-14.209,0-27.021-6.97-37.354-20.417l-0.537-0.701l36.226-177.849
									l0.649-0.444c30.498-20.83,64.824-24.441,85.405-8.999c13.403,10.054,32.515,37.236,9.941,106.313l0,0
									c-1.001,3.062-2.095,6.167-3.232,9.36c-20.151,51.619-53.384,87.817-84.678,92.273
									C2367.398,2235.319,2365.255,2235.473,2363.145,2235.473z M2329.41,2213.385c10.874,13.777,24.526,19.922,39.609,17.786
									c29.932-4.265,61.963-39.509,81.592-89.792c1.108-3.105,2.192-6.177,3.184-9.209l0,0
									c16.172-49.492,13.12-85.718-8.589-102.007c-19.111-14.343-51.284-10.842-80.239,8.662L2329.41,2213.385z"/>
							</g>
						</g>
						<g style="opacity:0.3;">
							<path style="fill:#000072;" d="M2455.638,2132.773c-1,3.046-2.088,6.135-3.219,9.311
								c-30.152,77.229-89.281,118.388-125.089,71.79l21.363-104.9c5.004-0.392,8.006-0.609,8.006-0.609
								c21.711,67.918,53.255,73.965,94.632,18.1C2451.33,2126.464,2452.897,2128.771,2455.638,2132.773z"/>
						</g>
						<g>
							<path style="fill:#000072;" d="M2363.223,2246.569c-17.632,0-33.828-8.594-46.24-24.739c-2.31-3-3.198-6.853-2.441-10.562
								l35.894-176.211c0.674-3.328,2.622-6.26,5.425-8.174c34.849-23.797,74.648-27.097,99.023-8.193
								c16.353,12.676,39.375,46.14,9.81,127.834c-22.007,56.379-57.808,94.38-93.55,99.475
								C2368.477,2246.381,2365.836,2246.569,2363.223,2246.569z M2341.387,2210.263c7.681,8.049,16.27,11.284,26.074,9.895
								c25.63-3.655,54.883-36.938,72.798-82.82c17.368-48.008,16.914-83.845-1.367-98.015c-14.292-11.079-40.073-8.374-63.97,6.309
								L2341.387,2210.263z"/>
						</g>
						<g>
							<g>
								<path style="fill:#FDBD91;" d="M1544.362,2132.773c1.001,3.046,2.088,6.135,3.22,9.311
									c30.152,77.229,89.281,118.388,125.089,71.79l-21.363-104.9l-14.532-71.312
									C1580.91,1999.505,1506.422,2016.647,1544.362,2132.773z"/>
							</g>
							<g>
								<path style="fill:#000072;" d="M1636.866,2236.247c-2.148,0-4.331-0.159-6.543-0.474
									c-31.563-4.495-65.034-40.884-85.264-92.703c-1.172-3.274-2.266-6.384-3.276-9.451v-0.005
									c-22.715-69.534-3.35-96.992,10.22-107.173c20.845-15.64,55.527-12.036,86.299,8.982l0.908,0.62l36.367,178.501
									l-0.757,0.981C1664.332,2229.172,1651.319,2236.247,1636.866,2236.247z M1546.939,2131.93
									c0.991,3.025,2.075,6.091,3.198,9.243c19.502,49.951,51.289,85.007,80.952,89.233c14.883,2.112,27.881-3.672,38.677-17.219
									l-35.43-173.899c-28.618-19.172-60.298-22.608-79.077-8.508C1533.834,2046.855,1530.88,2082.775,1546.939,2131.93
									L1546.939,2131.93z"/>
							</g>
						</g>
						<g style="opacity:0.55;">
							<path style="fill:#FFFFFF;" d="M1624.424,2232.254c-27.628-9.224-56.127-42.552-74.226-88.889
								c-1.131-3.176-2.219-6.265-3.22-9.311c-37.94-116.126,36.548-133.269,92.413-95.111l0.261,1.305
								c-50.514-19.101-101.463,7.397-68.744,107.598c1.001,3.046,2.089,6.135,3.22,9.311
								C1586.963,2190.094,1605.106,2216.46,1624.424,2232.254z"/>
						</g>
						<g>
							<path style="fill:#000072;" d="M1636.778,2246.569c-2.612,0-5.254-0.188-7.92-0.569
								c-35.742-5.095-71.543-43.096-93.433-99.17c-29.683-82-6.66-115.464,9.692-128.14c24.38-18.896,64.17-15.605,99.018,8.193
								c2.803,1.914,4.751,4.846,5.425,8.174l35.899,176.211c0.757,3.708-0.132,7.561-2.441,10.562
								C1670.606,2237.973,1654.41,2246.569,1636.778,2246.569z M1583.756,2032.524c-8.882,0-16.743,2.224-22.646,6.799
								c-18.281,14.17-18.735,50.007-1.25,98.32c17.798,45.576,47.051,78.86,72.681,82.515c9.814,1.392,18.384-1.846,26.074-9.895
								l-33.54-164.631C1611.051,2037.014,1596.373,2032.524,1583.756,2032.524z"/>
						</g>
						<g>
							<g>
								<path style="fill:#FDBD91;" d="M2355.349,2111.628v60.303c0,103.726-49.644,202.1-135.139,260.837
									c-1.219,0.827-2.437,1.61-3.612,2.437c-130.396,87.41-301.126,87.41-431.523,0.044c-1.175-0.827-2.393-1.654-3.611-2.48
									c-85.539-58.694-135.183-157.068-135.183-260.837v-60.303c0,0,0.218-3.872,0.653-10.834
									c3.22-55.039,17.795-301.997,20.145-308.306C1744.699,1583.558,2520.728,1634.768,2355.349,2111.628z"/>
							</g>
							<g>
								<path style="fill:#000072;" d="M2000.792,2503.815c-75.625,0-151.24-22.104-217.227-66.313
									c-1.099-0.774-2.183-1.511-3.271-2.251c-85.747-58.833-136.724-157.18-136.724-263.32v-60.303
									c0.005-0.154,0.225-4.031,0.659-11.001c5.307-90.784,17.91-302.651,20.313-309.084
									c20.371-54.841,89.443-95.476,189.497-111.48c96.582-15.449,209.087-4.978,300.942,28.005
									c91.714,32.934,294.995,138.215,203.076,404.016v59.846c0,106.086-50.957,204.431-136.313,263.071l-1.406,0.942
									c-0.737,0.491-1.47,0.979-2.183,1.479C2152.13,2481.684,2076.456,2503.815,2000.792,2503.815z M1945.587,1678.481
									c-31.011,0-61.577,2.28-90.688,6.938c-98.071,15.684-165.601,55.054-185.273,108.015
									c-1.88,6.948-11.943,170.017-19.985,307.519c-0.435,6.956-0.654,10.823-0.654,10.828l0.005,60.149
									c0,104.353,50.098,201.025,134.009,258.601c1.455,0.991,2.568,1.748,3.638,2.5c130.112,87.173,298.311,87.153,428.452-0.078
									c0.703-0.496,1.47-1.008,2.246-1.523l1.353-0.906c83.872-57.62,133.95-154.294,133.95-258.594l0.146-61.191
									c90.708-261.548-109.39-365.161-199.634-397.566C2089.805,1690.424,2016.544,1678.481,1945.587,1678.481z"/>
							</g>
						</g>
						<g style="opacity:0.3;">
							<path style="fill:#000072;" d="M2355.349,2111.628v60.303c0,103.726-49.644,202.1-135.139,260.837
								c-1.219,0.827-2.437,1.61-3.612,2.437c-130.396,87.41-301.126,87.41-431.523,0.044c-1.175-0.827-2.393-1.654-3.611-2.48
								c-2.698-1.871-5.395-3.785-8.049-5.743c122.696,59.651,269.756,50.775,385.186-26.628c1.175-0.827,2.393-1.61,3.611-2.437
								c85.495-58.737,135.139-157.111,135.139-260.837l5.157-76.015c56.127-161.81-1.328-258.874-97.919-329.098
								C2336.031,1796.796,2421.875,1919.753,2355.349,2111.628z"/>
						</g>
						<g style="opacity:0.3;">
							<path style="fill:#000072;" d="M2355.349,2111.628v24.496c-38.984-57.432-46.511-214.152-46.511-214.152
								c-34.082,37.012-225.505,79.688-359.845,8.323c-7.247-3.849-15.197,3.848-11.56,11.203c1.639,3.314,2.302,4.433,2.302,4.433
								c-17.669,10.938-100.899,0.277-146.048-25.995c-12.557-7.307-28.57,0.608-30.819,14.961
								c-10.116,64.55-42.253,109.487-111.018,176.732c-1.697-3.611-3.35-7.223-4.917-10.834
								c3.22-55.039,17.795-301.997,20.145-308.306C1744.699,1583.558,2520.728,1634.768,2355.349,2111.628z"/>
						</g>
						<g style="opacity:0.55;">
							<path style="fill:#FFFFFF;" d="M2147.941,2471.796c-117.91,48.339-254.354,36.156-362.866-36.547
								c-1.175-0.827-2.393-1.654-3.611-2.48c-85.539-58.694-135.183-157.068-135.183-260.837v-60.303
								c0,0,18.144-312.047,20.798-319.139c16.316-43.901,63.436-76.315,126.22-95.72c-47.208,19.71-81.884,48.208-95.415,84.582
								c-2.654,7.136-20.797,319.139-20.797,319.139v60.304c0,103.769,49.644,202.143,135.183,260.881
								c1.219,0.783,2.564,1.448,3.655,2.437C1900.587,2500.768,2037.602,2506.473,2147.941,2471.796z"/>
						</g>
						<g>
							<path style="fill:#000072;" d="M2000.821,2514.177c-77.632,0-155.254-22.695-222.988-68.091
								c-1.25-0.835-2.5-1.685-3.75-2.539c-88.198-60.52-140.854-162.061-140.854-271.619v-60.3c0-0.254,0.005-0.505,0.02-0.757
								c18.252-313.757,20.771-320.723,21.597-322.944l0,0c47.769-128.523,316.87-156.67,503.672-89.578
								c88.984,31.963,156.357,82.649,194.844,146.577c45.288,75.239,50.347,165.696,15.039,268.887v58.115
								c0,109.531-52.642,211.06-140.82,271.594l-3.716,2.522C2156.119,2491.464,2078.468,2514.174,2000.821,2514.177z
								 M1659.332,2112.006v59.922c0,100.95,48.423,194.443,129.526,250.098c1.162,0.798,2.324,1.584,3.496,2.368
								c126.665,84.89,290.332,84.875,416.958-0.024l3.481-2.363c81.094-55.669,129.502-149.153,129.502-250.078v-60.3
								c0-1.455,0.244-2.903,0.718-4.277c87.69-252.803-105.986-353.061-193.325-384.434
								c-189.302-67.988-430.195-30.337-470.015,73.162C1677.257,1812.936,1666.256,1993.036,1659.332,2112.006z M1679.317,1797.023
								c-0.005,0-0.005,0-0.005,0S1679.312,1797.023,1679.317,1797.023z M1679.41,1796.764c-0.029,0.076-0.063,0.168-0.088,0.244
								C1679.346,1796.938,1679.376,1796.857,1679.41,1796.764z M1667.081,1792.472h0.049H1667.081z"/>
						</g>
						<g>
							<g>
								<path style="fill:#AC3D50;" d="M2351.26,1664.572c97.896,125.089,85.713,342.765,3.263,456.846
									c-63.088-34.807-67.265-199.446-67.265-199.446c-149.323,40.638-300.43,15.837-437.441-102.203
									c-2.915,46.381,35.939,89.411,35.939,89.411c-17.621-0.522-33.415-3.089-47.599-7.353
									c-49.557-14.837-79.056-50.731-97.112-95.85c-17.404,156.633-18.491,191.44-94.763,305.651
									c-76.141-163.159-90.151-364.389,36.765-424.562c-176.951-60.913-111.688-184.218,40.594-74.705
									c-74.705-107.337,19.579-148.714,39.158-30.456c110.121-201.143,593.899-130.527,659.468,97.896l-70.833-15.185
									C2351.303,1664.572,2351.26,1664.572,2351.26,1664.572z"/>
							</g>
							<g>
								<path style="fill:#000072;" d="M2355.313,2124.95l-2.1-1.16c-59.37-32.754-67.568-173.735-68.55-198.313
									c-158.618,42.158-304.009,8.542-432.29-99.958c0.42,42.554,35.029,81.438,35.396,81.843l4.253,4.712l-6.343-0.185
									c-17.266-0.51-33.516-3.02-48.306-7.463c-42.861-12.835-73.95-41.619-94.771-87.852l-0.952,8.591
									c-15.479,140.251-19.639,177.947-93.115,287.969l-2.676,4.004l-2.036-4.363c-76.684-164.336-89.434-361.416,32.3-425.281
									c-71.475-25.95-99.58-60.898-101.904-85.393c-1.216-12.793,4.277-23.377,15.469-29.8
									c20.977-12.041,64.116-9.888,124.102,29.949c-25.132-41.118-24.424-70.876-15.347-84.517
									c5.317-7.991,13.652-11.448,22.778-9.475c15.273,3.279,34.126,22.38,42.91,65.881
									c60.562-100.615,206.66-122.864,324.966-109.712c140.967,15.667,299.458,88.108,335.776,214.624l1.245,4.346l-68.262-14.631
									c94.985,128.484,78.491,344.06-1.138,454.241L2355.313,2124.95z M2289.879,1918.449l0.088,3.455
									c0.044,1.611,4.751,159.788,63.784,195.93c78.486-110.918,93.281-326.487-4.624-451.592l-3.433-4.382l6.626,0.195
									l66.035,14.133c-37.998-121.409-192.329-191.087-329.858-206.372c-119.043-13.235-266.494,9.604-323.32,113.389l-3.77,6.887
									l-1.284-7.747c-7.627-46.062-26.333-65.842-40.039-68.786c-6.963-1.487-13.042,1.047-17.124,7.178
									c-8.97,13.482-8.354,45.159,22.905,90.076l9.038,12.991l-12.847-9.241c-63.931-45.969-109.824-48.965-129.668-37.559
									c-9.238,5.303-13.774,14.033-12.773,24.585c2.134,22.417,30.728,57.585,104.316,82.915l6.289,2.166l-6.011,2.847
									c-123.56,58.579-112.417,253.02-37.5,416.575c70.156-105.83,74.375-144.038,89.551-281.518l3.286-29.644l4.019,10.039
									c20.103,50.234,51.299,81.069,95.366,94.263c12.583,3.782,26.284,6.121,40.801,6.97
									c-10.044-12.617-35.039-48.152-32.622-86.602l0.342-5.444l4.131,3.562c128.774,110.943,275.108,145.147,434.961,101.638
									L2289.879,1918.449z"/>
							</g>
						</g>
						<g style="opacity:0.3;">
							<path style="fill:#000072;" d="M1722.934,1778.708c6.488,12.521,12.407,26.635,16.327,43.367
								c-15.794,143.101-19.405,179.344-92.979,289.553c-8.615-18.491-16.446-37.418-23.321-56.605
								c60.412-93.713,67.476-146.647,81.432-272.902C1705.466,1772.415,1718.441,1770.039,1722.934,1778.708z"/>
						</g>
						<g style="opacity:0.55;">
							<path style="fill:#FFFFFF;" d="M1694.881,1593.782c-95.807-40.594-130.484,29.586-37.157,83.451
								C1523.02,1618.496,1571.054,1522.863,1694.881,1593.782z"/>
						</g>
						<g style="opacity:0.55;">
							<path style="fill:#FFFFFF;" d="M1680.001,1688.589c0.089,0.04,0.178,0.081,0.269,0.121
								c12.061,5.333,14.611,21.161,4.459,29.579c-86.685,71.876-83.389,233.596-26.177,374.587
								c-3.829,6.004-7.919,12.27-12.27,18.752C1570.75,1949.774,1556.348,1750.502,1680.001,1688.589z"/>
						</g>
						<g style="opacity:0.55;">
							<path style="fill:#FFFFFF;" d="M1717.679,1610.62l-0.293-0.162c-50.558-77.838-4.557-122.663,26.16-86.768
								c-16.966,2.504-27.041,28.743-8.2,70.256C1740.344,1604.958,1728.292,1616.419,1717.679,1610.62z"/>
						</g>
						<g style="opacity:0.55;">
							<path style="fill:#FFFFFF;" d="M2326.242,1562.325c-83.363-38.462-195.008-64.176-296.34-64.654
								c-15.62,29.978-68.266,28.498-90.412,7.179c-56.997,10.225-105.249,31.805-135.357,67.787
								c-8.615,10.312-25.453,9.615-32.24-2.001c-0.392-0.609-0.74-1.262-1.044-2.001
								C1865.263,1448.244,2183.75,1438.324,2326.242,1562.325z"/>
						</g>
						<g>
							<path style="fill:#000072;" d="M2354.512,2134.472c-2.139,0-4.307-0.527-6.294-1.626
								c-57.563-31.758-70.42-149.023-73.257-194.233c-148.608,36.04-285.586,6.489-407.915-87.935
								c8.843,27.686,28.149,49.478,28.413,49.768c3.486,3.889,4.331,9.49,2.129,14.226c-2.148,4.617-6.768,7.558-11.831,7.558
								c-0.132,0-0.264,0-0.4-0.005c-59.932-1.841-105.537-26.038-136.074-72.07c-13.784,123.091-21.636,163.137-92.148,268.721
								c-2.617,3.916-7.104,6.111-11.846,5.767c-4.702-0.359-8.843-3.223-10.835-7.495
								c-74.824-160.339-89.258-351.565,18.643-427.686c-61.714-26.814-86.782-61.24-89.175-86.382
								c-1.597-16.824,5.918-31.311,20.62-39.749c19.751-11.348,56.055-12.178,104.775,12.59
								c-10.747-29.233-7.935-51.216,0.518-63.919c7.685-11.54,20.249-16.721,33.56-13.857c19.17,4.119,35.078,22.8,44.917,51.672
								c69.019-88.63,208.11-108.308,321.929-95.669c144.395,16.047,306.938,90.933,344.57,222.048
								c1.27,4.409,0.127,9.158-3.003,12.51c-3.13,3.354-7.783,4.812-12.28,3.855l-38.833-8.33
								c35.332,57.961,53.945,132.283,52.881,213.062c-1.177,88.708-26.133,173.184-68.472,231.77
								C2362.569,2132.568,2358.585,2134.472,2354.512,2134.472z M2287.252,1908.92c2.778,0,5.518,0.886,7.798,2.581
								c3.213,2.392,5.151,6.13,5.254,10.137c1.05,40.557,12.378,145.942,50.977,181.392
								c71.113-110.188,82.358-312.019-10.298-430.413c-3.389-4.326-3.701-10.31-0.786-14.966c2.91-4.661,8.408-6.995,13.804-5.842
								l48.174,10.332c-45.234-106.416-187.339-167.876-314.819-182.046c-145.43-16.155-268.315,26.262-313.106,108.076
								c-2.681,4.885-8.154,7.537-13.638,6.602c-5.488-0.933-9.78-5.244-10.688-10.737c-7.266-43.872-24.116-58.669-32.007-60.364
								c-1.938-0.417-4.209-0.42-6.348,2.795c-5.376,8.081-7.534,34.873,22.783,78.438c3.633,5.22,2.974,12.295-1.553,16.758
								c-4.541,4.456-11.626,5.002-16.782,1.296c-56.094-40.342-99.927-47.637-118.481-36.985
								c-5.752,3.301-8.247,8.088-7.622,14.636c1.982,20.889,32.866,51.907,97.383,74.116c5.02,1.726,8.491,6.318,8.784,11.616
								c0.293,5.298-2.646,10.247-7.441,12.52c-68.267,32.366-85.034,106.145-87.075,162.339
								c-2.422,66.621,14.56,146.858,46.914,223.262c58.813-91.694,62.983-129.46,77.505-261.025l2.09-18.904
								c0.664-5.95,5.288-10.686,11.221-11.492c5.947-0.808,11.65,2.534,13.872,8.089c21.016,52.561,55.517,82.895,105.039,92.092
								c-11.216-18.53-23.223-45.537-21.416-74.27c0.313-4.946,3.394-9.29,7.964-11.213c4.561-1.924,9.829-1.099,13.584,2.143
								c126.016,108.557,269.155,142.036,425.493,99.495C2284.957,1909.069,2286.109,1908.92,2287.252,1908.92z"/>
						</g>
						<g>
							<path style="fill:#000072;" d="M2287.247,1935.029c-5.757,0-11.03-3.84-12.593-9.665c-1.875-6.963,2.251-14.124,9.214-15.996
								c16.211-4.36,32.603-9.595,48.721-15.561c6.763-2.5,14.272,0.95,16.772,7.71c2.5,6.76-0.952,14.27-7.71,16.772
								c-16.865,6.243-34.023,11.721-51.006,16.289C2289.512,1934.882,2288.37,1935.029,2287.247,1935.029z"/>
						</g>
						<g style="opacity:0.3;">
							<path style="fill:#000072;" d="M2354.523,2121.417c-63.088-34.807-67.265-199.446-67.265-199.446
								c-149.323,40.638-300.43,15.837-437.441-102.203c-2.915,46.381,35.939,89.411,35.939,89.411
								c-17.621-0.522-33.415-3.089-47.599-7.353c-71.442-117.736-41.029-145.495,61.696-109.295
								c285.072,91.978,492.61,106.38,451.407-127.96C2449.155,1789.661,2436.972,2007.336,2354.523,2121.417z"/>
						</g>
						<g style="opacity:0.2;">
							<path style="fill:#FEFEFE;" d="M2282.149,1773.355c0,19.773-38.712,35.802-86.467,35.802
								c-47.754,0-86.467-16.029-86.467-35.802s38.713-20.284,86.467-20.284C2243.437,1753.07,2282.149,1753.582,2282.149,1773.355z
								"/>
						</g>
						<g>
							<g>
								<path style="fill:#000072;" d="M2046.562,2352.994c0,0-18.724,11.958-67.514,11.958
									c-10.585,0.732-40.876-0.932-79.156-35.883c0,0,17.684,50.971,78.016,50.971
									C1977.908,2380.04,2012.235,2383.16,2046.562,2352.994z"/>
							</g>
						</g>
						<g>
							<path style="fill:#000072;" d="M1769.536,2126.477c4.099-13.313,13.906-24.39,25.991-31.926
								c12.148-7.527,26.707-11.379,41.143-11.228c14.451,0.1,28.804,4.243,40.818,11.729c11.963,7.507,21.78,18.274,26.365,31.426
								c-13.13-4.512-24.314-8.115-35.354-10.435c-10.964-2.368-21.536-3.54-32.095-3.687c-10.559-0.107-21.096,0.825-31.963,3.135
								C1793.501,2117.751,1782.451,2121.443,1769.536,2126.477z"/>
						</g>
						<g>
							<path style="fill:#000072;" d="M2237.336,2126.477c-12.915-5.034-23.965-8.726-34.905-10.986
								c-10.867-2.31-21.404-3.242-31.963-3.135c-10.559,0.146-21.13,1.318-32.095,3.687c-11.04,2.319-22.224,5.923-35.354,10.435
								c4.585-13.152,14.402-23.918,26.365-31.426c12.014-7.485,26.367-11.628,40.818-11.729
								c14.436-0.151,28.994,3.701,41.143,11.228C2223.43,2102.087,2233.237,2113.164,2237.336,2126.477z"/>
						</g>
						<g>
							<ellipse style="fill:#000072;" cx="1849.817" cy="2205.989" rx="44.871" ry="59.193"/>
						</g>
						<g>
							<g>
								<ellipse style="fill:#FFFFFF;" cx="1861.278" cy="2192.259" rx="13.557" ry="19.877"/>
							</g>
							<g>
								<path style="fill:#000072;" d="M1861.28,2214.848c-9.126,0-16.27-9.924-16.27-22.59s7.144-22.588,16.27-22.588
									c9.121,0,16.265,9.922,16.265,22.588S1870.401,2214.848,1861.28,2214.848z M1861.28,2175.094
									c-5.879,0-10.85,7.859-10.85,17.163s4.971,17.166,10.85,17.166s10.845-7.861,10.845-17.166
									S1867.159,2175.094,1861.28,2175.094z"/>
							</g>
						</g>
						<g>
							<ellipse style="fill:#000072;" cx="2160.069" cy="2205.989" rx="44.871" ry="59.193"/>
						</g>
						<g>
							<g>
								<ellipse style="fill:#FFFFFF;" cx="2148.608" cy="2192.259" rx="13.557" ry="19.877"/>
							</g>
							<g>
								<path style="fill:#000072;" d="M2148.609,2214.848c-9.126,0-16.27-9.924-16.27-22.59s7.144-22.588,16.27-22.588
									c9.121,0,16.265,9.922,16.265,22.588S2157.73,2214.848,2148.609,2214.848z M2148.609,2175.094
									c-5.879,0-10.85,7.859-10.85,17.163s4.971,17.166,10.85,17.166s10.845-7.861,10.845-17.166
									S2154.488,2175.094,2148.609,2175.094z"/>
							</g>
						</g>
					</g>
				</g>
			</g>
			<defs>
				
					<filter id="Adobe_OpacityMaskFilter" filterUnits="userSpaceOnUse" x="1134.31" y="1954.245" width="1753.082" height="1337.127">
					<feFlood  style="flood-color:white;flood-opacity:1" result="back"/>
					<feBlend  in="SourceGraphic" in2="back" mode="normal"/>
				</filter>
			</defs>
			<mask maskUnits="userSpaceOnUse" x="1134.31" y="1954.245" width="1753.082" height="1337.127" id="SVGID_1_">
				<g style="filter:url(#Adobe_OpacityMaskFilter);">
					<defs>
						
							<filter id="Adobe_OpacityMaskFilter_00000133491498121904699530000002169655900755685025_" filterUnits="userSpaceOnUse" x="1134.31" y="1954.245" width="1753.082" height="1337.127">
							<feFlood  style="flood-color:white;flood-opacity:1" result="back"/>
							<feBlend  in="SourceGraphic" in2="back" mode="normal"/>
						</filter>
					</defs>
					<mask maskUnits="userSpaceOnUse" x="1134.31" y="1954.245" width="1753.082" height="1337.127" id="SVGID_1_">
						<g style="filter:url(#Adobe_OpacityMaskFilter_00000133491498121904699530000002169655900755685025_);">
						</g>
					</mask>
					
						<linearGradient id="SVGID_00000013188013327046467440000008366155297957177758_" gradientUnits="userSpaceOnUse" x1="2010.8621" y1="1960.3319" x2="2001.5936" y2="3294.9143">
						<stop  offset="0" style="stop-color:#000000"/>
						<stop  offset="1" style="stop-color:#FFFFFF"/>
					</linearGradient>
					<polygon style="mask:url(#SVGID_1_);fill:url(#SVGID_00000013188013327046467440000008366155297957177758_);" points="
						2533.77,3291.352 1491.41,3291.371 1134.31,1954.245 2887.392,1969.523 					"/>
				</g>
			</mask>
			
				<linearGradient id="SVGID_00000165218128892045793640000003720560387767837350_" gradientUnits="userSpaceOnUse" x1="2010.8621" y1="1960.3319" x2="2001.5936" y2="3294.9143">
				<stop  offset="0" style="stop-color:#40E6FF"/>
				<stop  offset="1" style="stop-color:#40E6FF"/>
			</linearGradient>
			<polygon style="opacity:0.5;fill:url(#SVGID_00000165218128892045793640000003720560387767837350_);" points="2533.77,3291.352 
				1491.41,3291.371 1134.31,1954.245 2887.392,1969.523 			"/>
			<g>
				<g>
					<g>
						<path style="fill:#C6D3E3;" d="M2656.068,3259.125c-6.958,34.406-25.576,64.013-51.249,85.031
							c-25.672,20.969-58.398,33.35-93.524,33.35h-997.428c-70.251,0-130.809-49.521-144.773-118.381H2656.068z"/>
					</g>
					<g>
						<path style="fill:#000072;" d="M2511.295,3380.217h-997.427c-71.26,0-133.267-50.701-147.432-120.552l-0.659-3.252h1293.608
							l-0.659,3.25c-6.855,33.894-25.391,64.646-52.188,86.589C2579.722,3368.154,2545.899,3380.217,2511.295,3380.217z
							 M1372.447,3261.838c14.893,65.649,73.838,112.954,141.421,112.954h997.427c33.354,0,65.962-11.626,91.812-32.737
							c24.971-20.449,42.5-48.835,49.609-80.217H1372.447z"/>
					</g>
				</g>
				<g>
					<path style="fill:#000072;" d="M2511.314,3393.771h-997.437c-77.69,0-145.273-55.261-160.703-131.401
						c-0.972-4.783,0.259-9.749,3.349-13.528c3.091-3.779,7.71-5.969,12.593-5.969H2656.08c4.883,0,9.502,2.19,12.593,5.969
						s4.321,8.745,3.35,13.53C2656.588,3338.51,2589,3393.771,2511.314,3393.771z M1390.616,3275.407
						c18.828,50.747,67.837,85.83,123.262,85.83h997.437c55.42,0,104.429-35.09,123.267-85.83H1390.616z"/>
				</g>
				<g style="opacity:0.3;">
					<path style="fill:#000072;" d="M2656.068,3259.125c-6.958,34.406-25.576,64.013-51.249,85.031
						c-25.672,20.969-58.398,33.35-93.524,33.35h-616.951c101.394-4.799,191.27-32.774,268.623-86.134
						c0,0,5.327-13.004,17.131-32.246H2656.068z"/>
				</g>
				<g>
					<g>
						<path style="fill:#C6D3E3;" d="M2655.684,2633.681l-52.064,593.677c-3.167,36.229-33.494,64.013-69.867,64.013H1491.41
							c-36.325,0-66.652-27.783-69.867-64.013l-52.016-593.677c-5.134-58.303,40.836-108.495,99.33-108.495h1087.449
							c19.146,0,36.949,5.374,52.064,14.635C2639.465,2558.919,2659.139,2594.477,2655.684,2633.681z"/>
					</g>
					<g>
						<path style="fill:#000072;" d="M2533.751,3294.084H1491.412c-38.008,0-69.209-28.584-72.568-66.487l-52.017-593.679
							c-2.515-28.545,7.148-57.041,26.509-78.186c19.355-21.135,46.885-33.259,75.522-33.259h1087.446
							c18.931,0,37.422,5.2,53.481,15.037c33.413,20.522,52.031,57.466,48.599,96.411v-0.002l-52.065,593.677
							C2603.009,3265.5,2571.812,3294.084,2533.751,3294.084z M1468.858,2527.897c-27.124,0-53.193,11.479-71.523,31.499
							c-18.34,20.022-27.49,47.012-25.107,74.048l52.017,593.677c3.11,35.083,31.987,61.538,67.168,61.538h1042.339
							c35.229,0,64.102-26.455,67.168-61.538l52.065-593.679c3.252-36.882-14.385-71.873-46.035-91.311
							c-15.2-9.312-32.715-14.233-50.645-14.233H1468.858z"/>
					</g>
				</g>
				<g style="opacity:0.75;">
					<path style="fill:#FFFFFF;" d="M2639.081,2569.236c-12.716-5.95-26.92-9.261-41.987-9.261H1509.644
						c-58.495,0-104.465,50.193-99.33,108.495l52.016,593.677c0.816,9.261,3.407,17.947,7.438,25.768
						c-26.104-8.445-45.682-31.862-48.226-60.558l-52.016-593.677c-5.134-58.303,40.836-108.495,99.33-108.495h1087.449
						C2590.951,2525.186,2621.23,2542.796,2639.081,2569.236z"/>
				</g>
				<g>
					<path style="fill:#000072;" d="M2533.77,3307.619H1491.422c-45.122,0-82.124-33.899-86.069-78.85l-52.056-593.687
						c-2.832-32.322,8.11-64.583,30.029-88.508c21.919-23.923,53.101-37.644,85.547-37.644h1087.446
						c32.446,0,63.628,13.721,85.547,37.644c21.919,23.926,32.861,56.187,30.029,88.508l-52.056,593.684
						C2615.899,3273.72,2578.897,3307.619,2533.77,3307.619z M1468.873,2541.464c-23.691,0-45.552,9.622-61.558,27.09
						c-16.001,17.468-23.677,40.085-21.606,63.687l52.056,593.684c2.461,28.025,25.527,49.16,53.657,49.16H2533.77
						c28.135,0,51.201-21.135,53.657-49.16l52.056-593.684c2.07-23.601-5.605-46.218-21.606-63.687
						c-16.006-17.468-37.866-27.09-61.558-27.09H1468.873z"/>
				</g>
				<g style="opacity:0.3;">
					<path style="fill:#000072;" d="M2655.684,2633.681l-52.064,593.677c-3.167,36.229-33.494,64.013-69.867,64.013h-940.229
						c578.562-45.538,936.535-279.276,1014.655-751.598l0.192,0.048C2639.465,2558.919,2659.139,2594.477,2655.684,2633.681z"/>
				</g>
				<g style="opacity:0.3;">
					<path style="fill:#FFFFFF;" d="M1631.858,3023.498l-65.295,6.111c-16.931,1.585-31.941-10.856-33.526-27.788l-22.431-239.68
						c-1.585-16.931,10.856-31.941,27.788-33.526l65.295-6.111c16.931-1.585,31.941,10.856,33.526,27.788l22.431,239.68
						C1661.23,3006.903,1648.789,3021.913,1631.858,3023.498z"/>
				</g>
				<g>
					<g>
						<path style="fill-rule:evenodd;clip-rule:evenodd;fill:#FFFFFF;" d="M2102.795,3039.523l-11.933,9.575l-1.427,30.26
							c-0.384,8.144-7.658,14.517-16.245,14.293l-0.071-0.002c-8.582-0.224-15.326-6.957-15.065-15.095l0.41-12.801
							c0.08-2.5-1.986-4.585-4.615-4.651l0,0c-2.628-0.066-4.815,1.912-4.884,4.412l-0.353,12.798
							c-0.224,8.137-7.35,14.505-15.915,14.281h-0.001c-8.559-0.224-15.412-6.95-15.31-15.082l0.134-10.696
							c0.046-3.652-3.029-6.7-6.867-6.796l0,0c-3.837-0.096-6.964,2.795-6.986,6.446l-0.063,10.692
							c-0.048,8.129-7.012,14.492-15.551,14.269l0,0c-8.534-0.223-15.508-6.943-15.581-15.067l-0.115-12.778
							c-0.022-2.496-2.16-4.577-4.774-4.642h0c-2.614-0.066-4.705,1.909-4.671,4.404l0.173,12.775
							c0.11,8.123-6.709,14.48-15.225,14.258l-0.07-0.002c-8.511-0.222-15.594-6.937-15.824-15.054l-0.858-30.158l-11.617-10.096
							c-30.17-26.201-49.024-64.053-51.253-104.445c-4.597-83.318,60.147-154.809,145.027-153.475
							c85.359,1.341,149.762,75.582,143.516,159.502C2153.756,2977.309,2133.87,3014.604,2102.795,3039.523L2102.795,3039.523z"/>
					</g>
					<g>
						<path style="fill:#000072;" d="M2010.933,2777.128c0.776-0.002,1.553,0.005,2.334,0.017
							c85.356,1.34,149.761,75.583,143.516,159.502c-3.027,40.662-22.915,77.957-53.989,102.876l-11.929,9.575l-1.431,30.259
							c-0.376,8.005-7.407,14.297-15.806,14.297c-0.146,0-0.293,0-0.439-0.005l-0.068-0.002
							c-8.584-0.222-15.327-6.956-15.063-15.095l0.41-12.8c0.078-2.5-1.987-4.585-4.614-4.651h-0.005
							c-0.044,0-0.083-0.002-0.127-0.002c-2.568,0-4.688,1.956-4.756,4.414l-0.352,12.798c-0.22,7.998-7.104,14.287-15.474,14.287
							c-0.146,0-0.293,0-0.439-0.005c-8.56-0.225-15.415-6.951-15.313-15.083l0.137-10.696c0.044-3.65-3.032-6.699-6.87-6.794
							c-0.063-0.002-0.127-0.002-0.19-0.002c-3.75,0-6.772,2.859-6.792,6.448l-0.063,10.693
							c-0.049,7.988-6.777,14.272-15.112,14.272c-0.146,0-0.293,0-0.44-0.005c-8.535-0.222-15.508-6.943-15.581-15.066
							l-0.117-12.778c-0.024-2.495-2.158-4.578-4.775-4.644c-0.039,0-0.083-0.002-0.122-0.002c-2.554,0-4.58,1.951-4.546,4.407
							l0.171,12.776c0.112,7.983-6.479,14.263-14.79,14.263c-0.146,0-0.288,0-0.435-0.005l-0.068-0.002
							c-8.516-0.222-15.596-6.936-15.825-15.054l-0.859-30.159l-11.616-10.095c-30.171-26.201-49.024-64.053-51.255-104.443
							C1863.687,2848.073,1927.203,2777.131,2010.933,2777.128 M2010.933,2750.834L2010.933,2750.834
							c-46.729,0.002-90.093,18.635-122.104,52.463c-32.393,34.231-49.468,81.167-46.841,128.772
							c2.598,47.068,24.565,91.843,60.264,122.847l2.905,2.522l0.532,18.63c0.625,22.166,18.818,39.998,41.421,40.588
							c0.444,0.012,0.815,0.015,1.187,0.015c6.738,0,13.198-1.553,18.97-4.49c5.923,3.35,12.769,5.334,20.107,5.527
							c0.371,0.01,0.747,0.015,1.123,0.015c7.778,0,15.073-2.131,21.309-5.828c6.387,4.216,14.009,6.763,22.207,6.978
							c0.376,0.012,0.752,0.017,1.128,0.017c6.963,0,13.506-1.633,19.258-4.536c6.011,3.457,12.852,5.388,20.044,5.576
							c0.435,0.012,0.811,0.017,1.187,0.017c22.559,0,41.035-17.29,42.07-39.363l0.869-18.403l2.686-2.156
							c36.973-29.648,60.21-73.911,63.75-121.426c3.589-48.213-13.018-96.282-45.557-131.89
							c-32.231-35.271-76.187-55.107-123.765-55.854C2012.76,2750.842,2011.851,2750.834,2010.933,2750.834L2010.933,2750.834z"/>
					</g>
					<g>
						<g>
							<path style="fill-rule:evenodd;clip-rule:evenodd;fill:#000072;" d="M1955.814,2896.242
								c-22.576-0.115-39.955,18.344-38.844,40.93c1.087,22.102,19.666,39.877,41.524,40.04
								c21.886,0.163,39.36-17.385,38.984-39.533C1997.095,2915.043,1978.42,2896.357,1955.814,2896.242L1955.814,2896.242z"/>
						</g>
						<g>
							<path style="fill-rule:evenodd;clip-rule:evenodd;fill:#000072;" d="M2068.505,2895.096
								c-22.757-0.116-41.282,18.411-41.387,41.079c-0.103,22.18,17.663,40.018,39.69,40.182
								c22.057,0.164,40.628-17.444,41.454-39.672C2109.106,2913.968,2091.293,2895.212,2068.505,2895.096L2068.505,2895.096z"/>
						</g>
					</g>
				</g>
			</g>
		</g>
	</g>
</g>
</svg>
