<svg xmlns="http://www.w3.org/2000/svg" viewBox="0 0 500 500"><g id="freepik--Background--inject-2"><path id="freepik--background--inject-2" d="M57.81,101.65c2.72.6,6.07-4.25,11.44-11.27A120.25,120.25,0,0,1,92,67.68c9.53-7.4,17.91-11.64,31.09-18.09,5.27-2.58,8.93-3.82,13.12-5.73.72-.33,1.67-.81,1.82-1.66s-.76-2.32-1.52-3c-4.55-3.77-11.11-4.19-16.53-4.11a61.62,61.62,0,0,0-18,3.31C79,45.86,60.63,64.48,55.67,90.38,54.43,96.8,54.63,101,57.81,101.65ZM440.6,147.37C353.4,21.62,212,4.64,103.18,80.9,8.14,147.51,10.84,317.6,35.7,372c23.72,51.88,75,104,198.63,107.91,109.23,3.43,161.35-34.57,198.34-66.66C505,350.54,497.84,229.9,440.6,147.37Z" style="fill:#37474f"></path></g><g id="freepik--Light--inject-2"><polygon points="377.49 184.13 377.49 184.13 257.48 138.78 257.48 138.32 200.87 117.39 146.09 234.23 201.77 295.37 258.04 262.87 388.16 187.83 377.49 184.13" style="fill:#BA68C8;opacity:0.1"></polygon></g><g id="freepik--Device--inject-2"><path d="M388.59,312.85l-5.49-3.06a6.68,6.68,0,0,0-6.22-.08l-27.33,15.78-3.59-2.1a6.08,6.08,0,0,0-5.54,0l-33.19,19.29c-1.54.89-1.54,2.32,0,3.21l3.5,2-39.5,22.8c-1.73,1-1.73,2.63,0,3.63l5.5,3.17a6.93,6.93,0,0,0,6.27,0l39.5-22.8a6.13,6.13,0,0,0,5.55,0l33.06-19.21c1.49-.86,1.52-2.25.12-3.14l27.31-15.77C390.27,315.56,390.29,313.9,388.59,312.85Z" style="opacity:0.15"></path><path d="M381.65,285.78l7.71-91.6a7.81,7.81,0,0,0-3.42-6.86,8.68,8.68,0,0,0-7.86.14L263,253.93a10,10,0,0,0-4.44,7l-7.71,91.6a7.81,7.81,0,0,0,3.42,6.86,8.72,8.72,0,0,0,7.86-.14l115.12-66.47A10,10,0,0,0,381.65,285.78Z" style="fill:#263238"></path><path d="M381.65,285.78l7.71-91.6a7.81,7.81,0,0,0-3.42-6.86,8.68,8.68,0,0,0-7.86.14L263,253.93a9.13,9.13,0,0,0-2.95,3l14.11,8.14-.87,87.76,104-60A10,10,0,0,0,381.65,285.78Z" style="fill:#455a64"></path><path d="M258.42,356.93l7.71-91.6a10,10,0,0,1,4.44-7l113.71-65.71c2.24-1.3,3.17-.31,3,2.26l-5.59,90.91a10,10,0,0,1-4.44,7L262.09,359.26C259.85,360.55,258.2,359.51,258.42,356.93Z" style="fill:#37474f"></path><path d="M321,276.28c.35-4.25,3.33-9.25,6.65-11.17s5.72,0,5.37,4.2-3.32,9.25-6.64,11.17S320.67,280.52,321,276.28Z" style="fill:#BA68C8"></path><polygon points="320.23 308.07 342.55 295.11 338.75 292.91 316.44 305.89 320.23 308.07" style="fill:#455a64"></polygon><path d="M352.9,333.16l-27.17,15.7a3.38,3.38,0,0,1-1.74.39,3.51,3.51,0,0,1-1.48-.37l0,0-12-6.91-.06,0a3.49,3.49,0,0,1-1.55-2.77v-.64c0-1,.71-1.46,1.61-.93l7.23,4.15,1.61.94-.36-1.83-2.54-34.94,3.79,2.19,22.33-13,11.62,35.28A2.82,2.82,0,0,1,352.9,333.16Z" style="fill:#37474f"></path><polygon points="309.39 337.44 318.66 332.08 320.54 344.56 309.39 337.44"></polygon><path d="M320.23,308.08l-3.79-2.19L319,340.83c.21,1-.37,1.42-1.25.89l-7.23-4.15c-.9-.53-1.61-.1-1.61.93v.64a3.49,3.49,0,0,0,1.55,2.77l.06,0,12,6.91,0,0a3.51,3.51,0,0,0,1.48.37Z" style="fill:#263238"></path><g id="freepik--text-boxes--inject-2"><path d="M281.53,206.48a10.15,10.15,0,0,0-4.58,7.94c0,2.92,2.05,4.11,4.58,2.65a10.15,10.15,0,0,0,4.58-7.94C286.11,206.21,284.06,205,281.53,206.48Z" style="fill:#BA68C8"></path><path d="M278.88,212.45a4,4,0,0,1,.32-1.52h0a2.57,2.57,0,0,1,1-1.23c.66-.39,1.21.4,1.3,1.33a4.23,4.23,0,0,1,1.28-2.85.71.71,0,0,1,1,.1h0a1.77,1.77,0,0,1,.33,1.13c0,1.58-.94,3-1.73,4.51l-.84,1.58-.85-.59C279.84,214.33,278.89,214,278.88,212.45Z" style="fill:#ebebeb"></path><path d="M293.75,199.44a10.15,10.15,0,0,0-4.58,7.94c0,2.92,2.05,4.11,4.58,2.64a10.12,10.12,0,0,0,4.58-7.93C298.33,199.17,296.28,198,293.75,199.44Z" style="fill:#BA68C8"></path><path d="M291.1,205.41a4,4,0,0,1,.32-1.52h0a2.57,2.57,0,0,1,1-1.23c.66-.39,1.21.4,1.3,1.33a4.23,4.23,0,0,1,1.28-2.85.71.71,0,0,1,1,.1h0a1.75,1.75,0,0,1,.33,1.13c0,1.58-.94,3-1.73,4.51l-.84,1.58-.84-.59C292.06,207.29,291.11,207,291.1,205.41Z" style="fill:#ebebeb"></path><path d="M306,192.4a10.14,10.14,0,0,0-4.58,7.94c0,2.92,2.05,4.1,4.58,2.64a10.12,10.12,0,0,0,4.58-7.93C310.55,192.13,308.5,190.94,306,192.4Z" style="fill:#BA68C8"></path><path d="M303.32,198.37a4,4,0,0,1,.32-1.52h0a2.65,2.65,0,0,1,1-1.24c.66-.39,1.21.41,1.3,1.34a4.23,4.23,0,0,1,1.28-2.85.71.71,0,0,1,1,.1h0a1.75,1.75,0,0,1,.33,1.13c0,1.58-.94,3-1.73,4.51l-.84,1.58-.84-.59C304.28,200.25,303.33,199.94,303.32,198.37Z" style="fill:#37474f"></path><path d="M318.19,185.36a10.14,10.14,0,0,0-4.58,7.94c0,2.92,2.05,4.1,4.58,2.64a10.13,10.13,0,0,0,4.59-7.93C322.78,185.09,320.72,183.9,318.19,185.36Z" style="fill:#BA68C8"></path><path d="M315.54,191.33a4,4,0,0,1,.32-1.52h0a2.65,2.65,0,0,1,1-1.24c.67-.39,1.22.41,1.3,1.34a4.23,4.23,0,0,1,1.28-2.85.72.72,0,0,1,1,.09h0a1.75,1.75,0,0,1,.33,1.13c0,1.58-.94,3-1.73,4.51l-.84,1.58-.84-.59C316.51,193.21,315.55,192.9,315.54,191.33Z" style="fill:#37474f"></path><path d="M330.42,178.32a10.12,10.12,0,0,0-4.59,7.94c0,2.92,2.06,4.1,4.59,2.64A10.12,10.12,0,0,0,335,181C335,178.05,333,176.86,330.42,178.32Z" style="fill:#BA68C8"></path><path d="M327.76,184.28a3.8,3.8,0,0,1,.33-1.51h0a2.6,2.6,0,0,1,1-1.24c.66-.39,1.21.4,1.29,1.34a4.23,4.23,0,0,1,1.28-2.85.73.73,0,0,1,1,.09h0a1.73,1.73,0,0,1,.33,1.13c0,1.58-.94,3-1.73,4.51l-.84,1.58-.84-.59C328.73,186.17,327.77,185.86,327.76,184.28Z" style="fill:#37474f"></path><path d="M291.7,165.33c0,5.86-3.56,12.66-8,15.2s-7.95-.16-7.95-6,3.56-12.66,7.95-15.2S291.7,159.47,291.7,165.33Z" style="fill:#BA68C8"></path><path d="M286.9,163.94a7.55,7.55,0,0,1-3.16,6c-1.74,1-3.15-.06-3.15-2.39a7.57,7.57,0,0,1,3.15-6C285.49,160.55,286.9,161.61,286.9,163.94Z" style="fill:#37474f"></path><path d="M288.32,173.19v.46a12.91,12.91,0,0,1-4.58,5.13c-1.77,1-3.4,1-4.57.15v-.46c0-2.82,1.73-6.12,3.85-7.35l1.45-.83C286.59,169.06,288.32,170.37,288.32,173.19Z" style="fill:#37474f"></path><path d="M298.23,156.75a.62.62,0,0,1,.09-.28.59.59,0,0,1,.17-.18l.72-.41a.17.17,0,0,1,.18,0c.05,0,.07.1.06.2a4.51,4.51,0,0,1-.18,1.08,4.76,4.76,0,0,1-.48,1.16,5.24,5.24,0,0,1-.81,1.11,5.1,5.1,0,0,1-1.19.94,2.58,2.58,0,0,1-1.09.39,1.16,1.16,0,0,1-.81-.22,1.53,1.53,0,0,1-.51-.74,4.14,4.14,0,0,1-.22-1.2c0-.3,0-.63,0-1s0-.71,0-1a7.16,7.16,0,0,1,.22-1.45,6.18,6.18,0,0,1,.51-1.34,5.36,5.36,0,0,1,.81-1.14,4.44,4.44,0,0,1,1.09-.88,2.93,2.93,0,0,1,1.19-.43,1.29,1.29,0,0,1,.81.17,1.18,1.18,0,0,1,.48.61,2.5,2.5,0,0,1,.18.87.45.45,0,0,1-.06.27.47.47,0,0,1-.18.19l-.72.42a.21.21,0,0,1-.17,0c-.06,0-.09-.08-.1-.18a1.06,1.06,0,0,0-.13-.39.57.57,0,0,0-.26-.25.75.75,0,0,0-.43,0,1.54,1.54,0,0,0-.61.24,2.23,2.23,0,0,0-.61.49,2.93,2.93,0,0,0-.43.63,3,3,0,0,0-.27.73,4.08,4.08,0,0,0-.11.77c0,.31,0,.64,0,1s0,.7,0,1a2.45,2.45,0,0,0,.11.65.87.87,0,0,0,.27.41.67.67,0,0,0,.43.13,1.48,1.48,0,0,0,.61-.21,3.15,3.15,0,0,0,.61-.46,3.57,3.57,0,0,0,.43-.55,2.22,2.22,0,0,0,.27-.56A2.34,2.34,0,0,0,298.23,156.75Z" style="fill:#BA68C8"></path><path d="M302.59,152.11a2,2,0,0,0-.77.76,2.51,2.51,0,0,0-.24,1.17v3.1a.54.54,0,0,1-.07.27.4.4,0,0,1-.17.19l-.68.4a.17.17,0,0,1-.17,0,.22.22,0,0,1-.07-.19v-5.55a.54.54,0,0,1,.07-.27.58.58,0,0,1,.17-.2l.68-.39a.13.13,0,0,1,.17,0,.21.21,0,0,1,.07.18v.28a4.66,4.66,0,0,1,.5-.73,3.06,3.06,0,0,1,.69-.56l.4-.23a.15.15,0,0,1,.18,0,.26.26,0,0,1,.07.19v.78a.68.68,0,0,1-.07.27.42.42,0,0,1-.18.19Z" style="fill:#BA68C8"></path><path d="M304.09,151.34a3.23,3.23,0,0,1,.16-.63,4.32,4.32,0,0,1,.37-.75,4.88,4.88,0,0,1,.58-.75,3.8,3.8,0,0,1,.8-.62,2.38,2.38,0,0,1,.83-.31.94.94,0,0,1,.63.1,1,1,0,0,1,.4.55,2.81,2.81,0,0,1,.15,1v3.5a.56.56,0,0,1-.08.27.39.39,0,0,1-.16.19l-.69.4a.12.12,0,0,1-.16,0,.23.23,0,0,1-.08-.19v-.39a3.41,3.41,0,0,1-.54.9,3,3,0,0,1-.9.77,1.85,1.85,0,0,1-.69.26.72.72,0,0,1-.51-.1.8.8,0,0,1-.31-.4,1.73,1.73,0,0,1-.11-.68,2.89,2.89,0,0,1,.43-1.54,5.33,5.33,0,0,1,1.17-1.31l1.46-1.18c0-.32-.08-.51-.24-.55a.82.82,0,0,0-.6.14,1.29,1.29,0,0,0-.35.29,2.81,2.81,0,0,0-.24.36.83.83,0,0,1-.15.22.53.53,0,0,1-.14.12l-.84.48a.14.14,0,0,1-.15,0S304.08,151.43,304.09,151.34Zm1.49,2.5a2.18,2.18,0,0,0,.54-.42,2.9,2.9,0,0,0,.4-.54,2.31,2.31,0,0,0,.24-.57,1.71,1.71,0,0,0,.08-.53v-.12l-1.21,1a2.41,2.41,0,0,0-.53.55.94.94,0,0,0-.16.53c0,.16.06.25.19.25A.8.8,0,0,0,305.58,153.84Z" style="fill:#BA68C8"></path><path d="M312.84,149.54a.15.15,0,0,1,.17,0,.26.26,0,0,1,.07.19v.79a.68.68,0,0,1-.07.26.58.58,0,0,1-.17.2l-3.63,2.09a.15.15,0,0,1-.17,0,.23.23,0,0,1-.08-.19v-.81a.87.87,0,0,1,0-.25,1.09,1.09,0,0,1,.09-.23l2.23-4.52-2,1.17a.14.14,0,0,1-.17,0,.22.22,0,0,1-.07-.18v-.79a.68.68,0,0,1,.07-.27.53.53,0,0,1,.17-.19l3.37-1.94a.14.14,0,0,1,.17,0c.05,0,.07.09.07.18v.81a.75.75,0,0,1,0,.24q0,.14-.09.24l-2.23,4.52Z" style="fill:#BA68C8"></path><path d="M315.34,149.19l-1.77-4.44a.19.19,0,0,1,0-.08.54.54,0,0,1,.07-.27.46.46,0,0,1,.17-.19l.67-.39a.17.17,0,0,1,.19,0,.24.24,0,0,1,.11.13l1.19,3,1.19-4.37a.87.87,0,0,1,.11-.25.54.54,0,0,1,.18-.21l.67-.38c.07,0,.13,0,.17,0a.19.19,0,0,1,.08.18s0,.06,0,.09l-2.52,9.23a.81.81,0,0,1-.1.25.61.61,0,0,1-.19.2l-.67.39c-.07,0-.13,0-.17,0a.19.19,0,0,1-.08-.18s0-.06,0-.09Z" style="fill:#BA68C8"></path><path d="M321.92,137.38q1.08-.63,1.68-.3t.6,1.65a4.59,4.59,0,0,1-.6,2.35,4.46,4.46,0,0,1-1.68,1.66l-1.44.83v2.66a.54.54,0,0,1-.07.27.46.46,0,0,1-.17.19l-.72.42a.13.13,0,0,1-.17,0,.2.2,0,0,1-.07-.18v-7.71a.57.57,0,0,1,.07-.27.46.46,0,0,1,.17-.19Zm-1.44,4.7,1.39-.8a2.41,2.41,0,0,0,.81-.74,1.89,1.89,0,0,0,.31-1.11c0-.45-.1-.7-.31-.75a1.19,1.19,0,0,0-.81.21l-1.39.8Z" style="fill:#BA68C8"></path><path d="M326.25,142.9a.57.57,0,0,1-.07.27.46.46,0,0,1-.17.19l-.68.39a.14.14,0,0,1-.17,0,.22.22,0,0,1-.07-.18v-7.82a.68.68,0,0,1,.07-.27.58.58,0,0,1,.17-.2l.68-.39a.13.13,0,0,1,.17,0,.2.2,0,0,1,.07.18Z" style="fill:#BA68C8"></path><path d="M327.49,137.83a3.23,3.23,0,0,1,.16-.63,4.32,4.32,0,0,1,.37-.75,4.44,4.44,0,0,1,.58-.75,4.16,4.16,0,0,1,.8-.62,2.38,2.38,0,0,1,.83-.31.89.89,0,0,1,.63.11,1,1,0,0,1,.4.54,2.81,2.81,0,0,1,.15,1v3.5a.56.56,0,0,1-.08.27.36.36,0,0,1-.17.19l-.67.4c-.07,0-.13,0-.17,0a.21.21,0,0,1-.08-.18v-.4a3.58,3.58,0,0,1-.54.9,3,3,0,0,1-.9.77,1.88,1.88,0,0,1-.68.26.79.79,0,0,1-.52-.1.8.8,0,0,1-.31-.4,1.73,1.73,0,0,1-.11-.68,2.91,2.91,0,0,1,.43-1.54,5.18,5.18,0,0,1,1.18-1.31l1.45-1.18c0-.32-.08-.51-.24-.55a.87.87,0,0,0-.6.14,1.29,1.29,0,0,0-.35.29,2.81,2.81,0,0,0-.24.36,1.21,1.21,0,0,1-.14.22.79.79,0,0,1-.15.12l-.84.48a.14.14,0,0,1-.15,0S327.48,137.92,327.49,137.83Zm1.49,2.5a2.45,2.45,0,0,0,.54-.42,2.9,2.9,0,0,0,.4-.54,2.1,2.1,0,0,0,.24-.56,1.77,1.77,0,0,0,.08-.54v-.12l-1.21,1a2.41,2.41,0,0,0-.53.55.94.94,0,0,0-.16.53c0,.16.06.25.19.25A.8.8,0,0,0,329,140.33Z" style="fill:#BA68C8"></path><path d="M333.88,138.49l-1.78-4.44V134a.54.54,0,0,1,.07-.27.36.36,0,0,1,.17-.19l.67-.39a.17.17,0,0,1,.19,0,.19.19,0,0,1,.1.12l1.19,3,1.19-4.37a1.28,1.28,0,0,1,.11-.25.56.56,0,0,1,.19-.21l.67-.38a.15.15,0,0,1,.17,0,.22.22,0,0,1,.07.19.28.28,0,0,1,0,.09l-2.51,9.23a1.6,1.6,0,0,1-.11.25.53.53,0,0,1-.19.2l-.67.39a.14.14,0,0,1-.17,0,.2.2,0,0,1-.07-.18.28.28,0,0,1,0-.09Z" style="fill:#BA68C8"></path><path d="M337.3,133.74a6.34,6.34,0,0,1,.15-1.35,6,6,0,0,1,.44-1.27,5.3,5.3,0,0,1,.69-1.09,3.62,3.62,0,0,1,.91-.77,1.69,1.69,0,0,1,.91-.28,1,1,0,0,1,.69.25,1.67,1.67,0,0,1,.45.71,3.5,3.5,0,0,1,.15,1.07v.54a.54.54,0,0,1-.07.27.4.4,0,0,1-.17.19l-3,1.73a.86.86,0,0,0,.09.43.45.45,0,0,0,.23.22.59.59,0,0,0,.33,0,1.66,1.66,0,0,0,.38-.15,2.3,2.3,0,0,0,.47-.35,1.62,1.62,0,0,0,.29-.37l.16-.22a.79.79,0,0,1,.17-.14l.72-.41a.14.14,0,0,1,.17,0,.17.17,0,0,1,.07.18,1.8,1.8,0,0,1-.14.51,3.34,3.34,0,0,1-.39.74,5,5,0,0,1-.64.8,4.07,4.07,0,0,1-.88.69,1.85,1.85,0,0,1-.91.29,1,1,0,0,1-.69-.26,1.74,1.74,0,0,1-.44-.77A4.28,4.28,0,0,1,337.3,133.74Zm2.19-3.05a1.94,1.94,0,0,0-.44.35,2.47,2.47,0,0,0-.5.91,2.77,2.77,0,0,0-.09.43l2-1.17a2.21,2.21,0,0,0-.06-.34.53.53,0,0,0-.16-.26.49.49,0,0,0-.3-.09A1,1,0,0,0,339.49,130.69Z" style="fill:#BA68C8"></path><path d="M344.84,127.72a1.88,1.88,0,0,0-.77.76,2.48,2.48,0,0,0-.24,1.17v3.1a.54.54,0,0,1-.07.27.46.46,0,0,1-.17.19l-.68.39a.15.15,0,0,1-.17,0,.22.22,0,0,1-.07-.19v-5.56a.54.54,0,0,1,.07-.26.43.43,0,0,1,.17-.2l.68-.39a.13.13,0,0,1,.17,0c.05,0,.07.09.07.18v.28a4.23,4.23,0,0,1,.5-.73,2.48,2.48,0,0,1,.69-.56l.4-.23c.07,0,.13,0,.17,0a.2.2,0,0,1,.07.18v.79a.54.54,0,0,1-.07.27.4.4,0,0,1-.17.19Z" style="fill:#BA68C8"></path><path d="M346.23,129.21a3.89,3.89,0,0,1,.19-1.22,5,5,0,0,1,.56-1.14,1.42,1.42,0,0,1-.53-1.31,3.77,3.77,0,0,1,.17-1.1,5,5,0,0,1,.47-1,5.18,5.18,0,0,1,.71-.91,4.9,4.9,0,0,1,.9-.69,2.68,2.68,0,0,1,.89-.34,1.17,1.17,0,0,1,.71.09,1,1,0,0,1,.47.5,2,2,0,0,1,.17.9,3.29,3.29,0,0,1-.14,1,4.75,4.75,0,0,1-.38.94,1,1,0,0,1,.55.5,2.09,2.09,0,0,1,.2,1,3.9,3.9,0,0,1-.18,1.16,4.69,4.69,0,0,1-.49,1.1,5.6,5.6,0,0,1-.78,1,5.11,5.11,0,0,1-1,.78,3.1,3.1,0,0,1-1,.4,1.31,1.31,0,0,1-.78-.08,1.08,1.08,0,0,1-.5-.53A2.39,2.39,0,0,1,346.23,129.21Zm1.21-.7a.73.73,0,0,0,.1.42.45.45,0,0,0,.29.18.79.79,0,0,0,.4,0,2.07,2.07,0,0,0,.47-.2,3.46,3.46,0,0,0,.47-.34,3.31,3.31,0,0,0,.4-.44,2.12,2.12,0,0,0,.28-.51,1.5,1.5,0,0,0,.11-.55.67.67,0,0,0-.11-.41.49.49,0,0,0-.28-.18.8.8,0,0,0-.4,0,1.86,1.86,0,0,0-.47.19,3,3,0,0,0-.47.35,2.38,2.38,0,0,0-.4.44,2.5,2.5,0,0,0-.29.5A1.47,1.47,0,0,0,347.44,128.51Zm.22-3.67a.65.65,0,0,0,.09.37.35.35,0,0,0,.23.16.74.74,0,0,0,.33,0,1.59,1.59,0,0,0,.39-.17,2,2,0,0,0,.38-.28,2,2,0,0,0,.57-.8,1.31,1.31,0,0,0,.09-.47.65.65,0,0,0-.09-.37.38.38,0,0,0-.23-.16.79.79,0,0,0-.34,0,1.39,1.39,0,0,0-.38.17,1.75,1.75,0,0,0-.39.28,2.35,2.35,0,0,0-.33.37,1.63,1.63,0,0,0-.23.43A1.27,1.27,0,0,0,347.66,124.84Z" style="fill:#BA68C8"></path><path d="M352.49,120.05a.54.54,0,0,1,.07-.27.58.58,0,0,1,.17-.2l3.36-1.94c.07,0,.13,0,.17,0a.23.23,0,0,1,.08.19v.84a.56.56,0,0,1-.08.27.36.36,0,0,1-.17.19l-2.51,1.45-.1,1.59a2.33,2.33,0,0,1,.48-.43l.39-.25a2.86,2.86,0,0,1,.93-.36,1.13,1.13,0,0,1,.74.1,1.14,1.14,0,0,1,.49.58,2.77,2.77,0,0,1,.18,1.08,5.23,5.23,0,0,1-.18,1.41,4.89,4.89,0,0,1-.5,1.19,4.31,4.31,0,0,1-.75.94,5,5,0,0,1-.91.69,3,3,0,0,1-1.06.42,1.14,1.14,0,0,1-.73-.1,1,1,0,0,1-.44-.49,2.14,2.14,0,0,1-.17-.8.54.54,0,0,1,.07-.27.53.53,0,0,1,.17-.19l.73-.42a.16.16,0,0,1,.16,0c.05,0,.08.07.1.15a.61.61,0,0,0,.17.35.45.45,0,0,0,.27.12.74.74,0,0,0,.34-.06,3.44,3.44,0,0,0,.39-.19,2.24,2.24,0,0,0,.82-.85,2.33,2.33,0,0,0,.32-1.19.73.73,0,0,0-.32-.71.82.82,0,0,0-.82.1,1.9,1.9,0,0,0-.42.3,2.13,2.13,0,0,0-.26.27l-.18.23a.67.67,0,0,1-.2.17l-.83.48a.15.15,0,0,1-.17,0,.26.26,0,0,1-.07-.19Z" style="fill:#BA68C8"></path><path d="M295.94,173.05a1.72,1.72,0,0,1-.89-.24,2.19,2.19,0,0,1-1-2v-1a5.92,5.92,0,0,1,2.71-4.7l42.55-24.57a2,2,0,0,1,3.21,1.85v1a5.93,5.93,0,0,1-2.72,4.7l-42.55,24.57A2.76,2.76,0,0,1,295.94,173.05Zm44.76-31.93a1.78,1.78,0,0,0-.86.27L297.29,166a5,5,0,0,0-2.22,3.85v1a1,1,0,0,0,1.73,1l42.56-24.58a5,5,0,0,0,2.22-3.85v-1a1.3,1.3,0,0,0-.48-1.17A.74.74,0,0,0,340.7,141.12Z" style="fill:#BA68C8"></path><path d="M327.92,149.94l-.65,2.61-30,17.26c-.44.26-.81.05-.81-.48v-.28a1.81,1.81,0,0,1,.82-1.43Z" style="fill:#BA68C8"></path><path d="M347.7,141.2a.05.05,0,0,1,.08,0,.21.21,0,0,1,0,.12v.53a.45.45,0,0,1,0,.16.35.35,0,0,1-.08.11l-1.83,1.05a.06.06,0,0,1-.08,0,.23.23,0,0,1,0-.13v-4.78a.41.41,0,0,1,0-.16.2.2,0,0,1,.08-.11l.34-.19a.05.05,0,0,1,.08,0,.21.21,0,0,1,0,.12V142Z" style="fill:#BA68C8"></path><path d="M348.5,141.6a.3.3,0,0,1,0-.1l-.84-2.93a.43.43,0,0,1,0,0,.32.32,0,0,1,0-.16.24.24,0,0,1,.08-.11l.31-.18s.07,0,.09,0a.41.41,0,0,1,.05.09l.55,2,.56-2.62a1,1,0,0,1,0-.14.27.27,0,0,1,.09-.12l.32-.18a.07.07,0,0,1,.08,0,.17.17,0,0,1,0,.12.07.07,0,0,1,0,.05l-.83,3.9a.75.75,0,0,1-.05.16.2.2,0,0,1-.09.11l-.28.16S348.52,141.63,348.5,141.6Z" style="fill:#BA68C8"></path><path d="M350.79,140.14a.29.29,0,0,1,0,.16.24.24,0,0,1-.08.11l-.31.18a.06.06,0,0,1-.08,0,.22.22,0,0,1,0-.13v-4.86a.47.47,0,0,1,0-.16.17.17,0,0,1,.08-.1l.31-.19a.06.06,0,0,1,.08,0s0,.06,0,.12Z" style="fill:#BA68C8"></path><path d="M352.68,139.05s0-.05,0-.07v0l.55-1.72a.74.74,0,0,1-.43.12.5.5,0,0,1-.34-.16,1,1,0,0,1-.24-.43,2.59,2.59,0,0,1-.08-.68,4,4,0,0,1,.08-.78,3.38,3.38,0,0,1,.24-.7,2.89,2.89,0,0,1,.35-.57,1.67,1.67,0,0,1,.44-.37.79.79,0,0,1,.44-.13.47.47,0,0,1,.35.15,1,1,0,0,1,.24.43,2.34,2.34,0,0,1,.08.69,2.75,2.75,0,0,1,0,.41,3.91,3.91,0,0,1-.07.39c0,.13-.07.25-.1.37a3.38,3.38,0,0,1-.11.34l-.78,2.44s0,.08,0,.12a.18.18,0,0,1-.09.1l-.37.22a.06.06,0,0,1-.08,0A.16.16,0,0,1,352.68,139.05Zm0-3.3a.72.72,0,0,0,.16.54c.1.09.23.08.39,0a1,1,0,0,0,.39-.45,1.46,1.46,0,0,0,.16-.71.69.69,0,0,0-.16-.55.31.31,0,0,0-.39,0,1,1,0,0,0-.39.45A1.67,1.67,0,0,0,352.72,135.75Z" style="fill:#BA68C8"></path><path d="M355.2,137.59a.13.13,0,0,1,0-.06s0,0,0-.05l.55-1.71a.94.94,0,0,1-.43.12.6.6,0,0,1-.35-.16,1.15,1.15,0,0,1-.23-.43,2.27,2.27,0,0,1-.08-.68,3.42,3.42,0,0,1,.08-.79,3.85,3.85,0,0,1,.24-.7,2.81,2.81,0,0,1,.35-.56,1.72,1.72,0,0,1,.44-.38.85.85,0,0,1,.44-.13.54.54,0,0,1,.35.16,1,1,0,0,1,.24.43,2.59,2.59,0,0,1,.08.68c0,.15,0,.29,0,.42s-.05.26-.08.39-.06.25-.09.37-.07.23-.11.34l-.78,2.44-.05.12a.16.16,0,0,1-.08.1l-.38.22s-.05,0-.07,0S355.2,137.65,355.2,137.59Zm0-3.3a.69.69,0,0,0,.16.55.33.33,0,0,0,.39,0,1,1,0,0,0,.39-.45,1.66,1.66,0,0,0,.16-.72.72.72,0,0,0-.16-.54.31.31,0,0,0-.39,0,1,1,0,0,0-.39.45A1.53,1.53,0,0,0,355.24,134.29Z" style="fill:#BA68C8"></path><path d="M342.24,166v1.44a.53.53,0,0,1,0,.17.2.2,0,0,1-.08.11l-.34.2a.08.08,0,0,1-.09,0,.23.23,0,0,1,0-.13v-1.44l-.8.46a.05.05,0,0,1-.08,0,.17.17,0,0,1,0-.13v-.52a.33.33,0,0,1,0-.17.17.17,0,0,1,.08-.11l.8-.46v-1.43a.47.47,0,0,1,0-.17.31.31,0,0,1,.09-.12l.34-.19a.06.06,0,0,1,.08,0,.25.25,0,0,1,0,.13V165l.79-.45a.05.05,0,0,1,.08,0,.22.22,0,0,1,0,.13v.52a.47.47,0,0,1,0,.17.2.2,0,0,1-.08.11Z" style="fill:#BA68C8"></path><path d="M343.33,163.49a.24.24,0,0,1,0-.15.53.53,0,0,1,0-.17l1-1.9c0-.05.05-.09.07-.14l.08-.09.35-.2s.06,0,.09,0a.23.23,0,0,1,0,.13v5.1a.51.51,0,0,1,0,.17.26.26,0,0,1-.09.11l-.36.21a.06.06,0,0,1-.08,0,.18.18,0,0,1,0-.13v-3.91l-.63,1.24c0,.06,0,.09-.09.1a.06.06,0,0,1-.08,0Z" style="fill:#BA68C8"></path><path d="M345.69,160.56a.57.57,0,0,1,0-.18.35.35,0,0,1,.09-.11l1.67-1a.05.05,0,0,1,.08,0,.17.17,0,0,1,0,.13V160a.33.33,0,0,1,0,.17.23.23,0,0,1-.08.12l-1.25.72-.05,1a.91.91,0,0,1,.24-.24l.19-.13a.92.92,0,0,1,.46-.15.49.49,0,0,1,.37.14.89.89,0,0,1,.25.43,2.5,2.5,0,0,1,.09.73,3.76,3.76,0,0,1-.1.92,3.47,3.47,0,0,1-.24.73,2.37,2.37,0,0,1-.37.56,2.57,2.57,0,0,1-.46.37,1.16,1.16,0,0,1-.52.17.52.52,0,0,1-.37-.13.89.89,0,0,1-.22-.37,2.19,2.19,0,0,1-.08-.54.57.57,0,0,1,0-.18.3.3,0,0,1,.09-.1l.36-.21a.06.06,0,0,1,.08,0,.23.23,0,0,1,0,.11.81.81,0,0,0,.08.25.36.36,0,0,0,.14.11.34.34,0,0,0,.17,0l.19-.09A1,1,0,0,0,347,164a1.84,1.84,0,0,0,.16-.76.71.71,0,0,0-.16-.51.33.33,0,0,0-.41,0,1,1,0,0,0-.21.15l-.13.16-.08.13a.52.52,0,0,1-.11.1l-.41.23a.05.05,0,0,1-.08,0,.22.22,0,0,1,0-.13Z" style="fill:#BA68C8"></path><path d="M351.39,161.59a.05.05,0,0,1,.08,0,.17.17,0,0,1,0,.13v.56a.35.35,0,0,1,0,.17.24.24,0,0,1-.08.11l-1.95,1.13s-.06,0-.09,0a.23.23,0,0,1,0-.13v-5.1a.51.51,0,0,1,0-.17.21.21,0,0,1,.09-.11l1.91-1.11s.06,0,.09,0a.21.21,0,0,1,0,.13v.56a.55.55,0,0,1,0,.17.35.35,0,0,1-.09.11l-1.43.83v1.25l1.33-.77a.06.06,0,0,1,.09,0,.19.19,0,0,1,0,.12v.57a.55.55,0,0,1,0,.17.2.2,0,0,1-.09.11l-1.33.77v1.31Z" style="fill:#BA68C8"></path><path d="M353,160.34l-.53,1.46a.52.52,0,0,1-.09.17.41.41,0,0,1-.1.09l-.35.2a.05.05,0,0,1-.08,0,.22.22,0,0,1,0-.14.49.49,0,0,1,0-.12l.8-2.22-.76-1.24a.25.25,0,0,1,0-.1.39.39,0,0,1,0-.18.24.24,0,0,1,.08-.11l.34-.2.1,0s.07,0,.1.07l.5.82.49-1.39a.57.57,0,0,1,.1-.18.28.28,0,0,1,.1-.09l.34-.2s.06,0,.09,0a.26.26,0,0,1,0,.14.5.5,0,0,1,0,.12l-.77,2.16.79,1.27a.3.3,0,0,1,0,.1.48.48,0,0,1,0,.18.2.2,0,0,1-.08.11l-.34.2a.23.23,0,0,1-.11,0s-.06,0-.09-.07Z" style="fill:#BA68C8"></path><path d="M355.87,160.07a.68.68,0,0,1-.25.1.39.39,0,0,1-.19,0,.31.31,0,0,1-.14-.07.94.94,0,0,1-.1-.1v1.68a.51.51,0,0,1,0,.17.2.2,0,0,1-.08.11l-.34.2s-.06,0-.09,0a.23.23,0,0,1,0-.13v-5.18a.51.51,0,0,1,0-.17c0-.05.05-.09.09-.11l.34-.2a.05.05,0,0,1,.08,0,.23.23,0,0,1,0,.13v.18l.1-.21a2,2,0,0,1,.14-.23,1.37,1.37,0,0,1,.19-.23.79.79,0,0,1,.25-.19.51.51,0,0,1,.4-.08.57.57,0,0,1,.31.23,1.5,1.5,0,0,1,.19.48,3.19,3.19,0,0,1,.09.65v.56a4.82,4.82,0,0,1-.09.74,3.89,3.89,0,0,1-.19.71,3,3,0,0,1-.31.59A1.29,1.29,0,0,1,355.87,160.07Zm.41-2.15a3.23,3.23,0,0,0,0-.44,1,1,0,0,0-.18-.63.28.28,0,0,0-.37,0,1,1,0,0,0-.36.44,2.12,2.12,0,0,0-.18.76v.6a.89.89,0,0,0,.18.55.26.26,0,0,0,.36,0,.92.92,0,0,0,.37-.44A2.19,2.19,0,0,0,356.28,157.92Z" style="fill:#BA68C8"></path><path d="M343.38,180.46v1.43a.47.47,0,0,1,0,.17.31.31,0,0,1-.09.12l-.34.19a.05.05,0,0,1-.08,0,.22.22,0,0,1,0-.13v-1.44l-.79.46s-.06,0-.09,0a.19.19,0,0,1,0-.12v-.53a.55.55,0,0,1,0-.17.35.35,0,0,1,.09-.11l.79-.46v-1.43a.59.59,0,0,1,0-.17.24.24,0,0,1,.08-.11l.34-.19a.06.06,0,0,1,.09,0,.23.23,0,0,1,0,.13v1.43l.79-.46s.06,0,.09,0a.23.23,0,0,1,0,.13v.52a.51.51,0,0,1,0,.17c0,.05-.05.09-.09.11Z" style="fill:#BA68C8"></path><path d="M346,177.75a1.59,1.59,0,0,0,.17-.49,1.82,1.82,0,0,0,0-.38.91.91,0,0,0-.11-.49c-.07-.1-.2-.11-.37,0a.93.93,0,0,0-.36.42,2.85,2.85,0,0,0-.16.64.48.48,0,0,1,0,.19.24.24,0,0,1-.08.09l-.35.21a.09.09,0,0,1-.09,0,.18.18,0,0,1,0-.14,3.76,3.76,0,0,1,.1-.73,4,4,0,0,1,.24-.69,2.8,2.8,0,0,1,.35-.58,1.53,1.53,0,0,1,.43-.38.67.67,0,0,1,.48-.12.55.55,0,0,1,.34.22,1.39,1.39,0,0,1,.2.46,2.72,2.72,0,0,1,.06.58c0,.13,0,.26,0,.38a3,3,0,0,1-.06.4,4.72,4.72,0,0,1-.15.45,4.93,4.93,0,0,1-.25.56l-.82,1.81,1.24-.72a.06.06,0,0,1,.08,0,.17.17,0,0,1,0,.13v.56a.35.35,0,0,1,0,.17.24.24,0,0,1-.08.11l-2.08,1.2a.05.05,0,0,1-.08,0,.19.19,0,0,1,0-.12V181a.8.8,0,0,1,.05-.26c0-.08.05-.14.07-.18Z" style="fill:#BA68C8"></path><path d="M349.73,175.23v1.41a8.41,8.41,0,0,1-.08.89,3.49,3.49,0,0,1-.21.8,2.64,2.64,0,0,1-.36.66,2,2,0,0,1-.55.48.93.93,0,0,1-.55.15.49.49,0,0,1-.36-.24,1.64,1.64,0,0,1-.21-.56,4.76,4.76,0,0,1-.07-.8c0-.2,0-.43,0-.68s0-.49,0-.69a6.56,6.56,0,0,1,.07-.9,4.79,4.79,0,0,1,.21-.81,2.53,2.53,0,0,1,.36-.67,1.85,1.85,0,0,1,.55-.49.88.88,0,0,1,.55-.16.56.56,0,0,1,.36.24,1.36,1.36,0,0,1,.21.57A5.84,5.84,0,0,1,349.73,175.23Zm-1.79,2.4a1.8,1.8,0,0,0,.15.79c.09.16.23.18.44.06a1,1,0,0,0,.44-.57,3.56,3.56,0,0,0,.16-1c0-.2,0-.42,0-.67s0-.46,0-.66a1.92,1.92,0,0,0-.16-.79c-.08-.15-.23-.17-.44,0a1,1,0,0,0-.44.56,3.24,3.24,0,0,0-.15,1c0,.21,0,.43,0,.67S347.93,177.43,347.94,177.63Z" style="fill:#BA68C8"></path><path d="M353.76,170.84a.05.05,0,0,1,.08,0,.17.17,0,0,1,0,.13v5.11a.38.38,0,0,1,0,.17.24.24,0,0,1-.08.11l-.36.21a.06.06,0,0,1-.08,0,.17.17,0,0,1,0-.13v-2.08l-1.34.77v2.09a.38.38,0,0,1,0,.17.24.24,0,0,1-.08.11l-.36.21a.08.08,0,0,1-.09,0,.24.24,0,0,1,0-.14v-5.1a.51.51,0,0,1,0-.17.26.26,0,0,1,.09-.11l.36-.21a.06.06,0,0,1,.08,0,.18.18,0,0,1,0,.13v2l1.34-.78v-2a.35.35,0,0,1,0-.17.2.2,0,0,1,.08-.11Z" style="fill:#BA68C8"></path><path d="M355.88,169.61q.54-.3.84,0a1.6,1.6,0,0,1,.3,1.15,3.46,3.46,0,0,1-.3,1.5,2.09,2.09,0,0,1-.84.94l-.71.41v1.76a.51.51,0,0,1,0,.17.21.21,0,0,1-.09.11l-.36.21a.06.06,0,0,1-.08,0,.18.18,0,0,1,0-.13v-5.11a.38.38,0,0,1,0-.17.24.24,0,0,1,.08-.11Zm-.71,3,.69-.4a1.08,1.08,0,0,0,.41-.41,1.41,1.41,0,0,0,.15-.71c0-.29-.05-.47-.15-.52a.46.46,0,0,0-.41.06l-.69.4Z" style="fill:#BA68C8"></path><path d="M281.53,191.8a10.15,10.15,0,0,0-4.58,7.94c0,2.92,2.05,4.11,4.58,2.64a10.12,10.12,0,0,0,4.58-7.93C286.11,191.53,284.06,190.34,281.53,191.8Z" style="fill:#BA68C8"></path><path d="M282,193.69a.93.93,0,0,1,.47,0,.8.8,0,0,1,.36.2,1,1,0,0,1,.24.34,1.17,1.17,0,0,1,.09.42.29.29,0,0,1,0,.16.2.2,0,0,1-.08.11l-.76.44a.27.27,0,0,1-.13,0,.24.24,0,0,1-.1,0l-.06-.06a.26.26,0,0,0-.1-.07.51.51,0,0,0-.18,0,.68.68,0,0,0-.25.1l-.21.14a.77.77,0,0,0-.18.18,1.07,1.07,0,0,0-.13.21.66.66,0,0,0-.05.25.25.25,0,0,0,.06.19.24.24,0,0,0,.18.06,1.41,1.41,0,0,0,.35-.06l.53-.13a2,2,0,0,1,.55-.08.62.62,0,0,1,.4.16.79.79,0,0,1,.24.39,2.58,2.58,0,0,1,.07.68,3.06,3.06,0,0,1-.09.74,3.46,3.46,0,0,1-.26.7,3.27,3.27,0,0,1-.4.64,4.34,4.34,0,0,1-.52.53v.63a.53.53,0,0,1-.05.2.29.29,0,0,1-.11.13l-.76.44a.09.09,0,0,1-.11,0,.2.2,0,0,1,0-.14v-.66a1.21,1.21,0,0,1-.5,0,.82.82,0,0,1-.38-.2.86.86,0,0,1-.25-.36,1.3,1.3,0,0,1-.09-.49.32.32,0,0,1,0-.16.24.24,0,0,1,.08-.11l.76-.43a.19.19,0,0,1,.12-.05l.1,0,.07.08a.38.38,0,0,0,.12.09.4.4,0,0,0,.2,0,.76.76,0,0,0,.29-.11,2.32,2.32,0,0,0,.51-.4.7.7,0,0,0,.21-.49.19.19,0,0,0-.08-.18.38.38,0,0,0-.23,0,1.85,1.85,0,0,0-.38.08L281,198a.85.85,0,0,1-.87-.16,1.53,1.53,0,0,1-.28-1.06,2.87,2.87,0,0,1,.08-.64,3.2,3.2,0,0,1,.22-.66,4.19,4.19,0,0,1,.34-.62,3,3,0,0,1,.47-.54v-.66a.48.48,0,0,1,0-.2.37.37,0,0,1,.11-.13l.76-.44a.09.09,0,0,1,.11,0,.2.2,0,0,1,.05.14Z" style="fill:#37474f"></path><path d="M293.75,184.75c2.53-1.46,4.58-.28,4.58,2.65a10.12,10.12,0,0,1-4.58,7.93c-2.53,1.46-4.58.28-4.58-2.64A10.12,10.12,0,0,1,293.75,184.75Z" style="fill:#BA68C8"></path><path d="M294.25,186.64a1,1,0,0,1,.48,0,.91.91,0,0,1,.36.2,1.13,1.13,0,0,1,.23.34,1.28,1.28,0,0,1,.1.43.47.47,0,0,1,0,.16s-.05.09-.09.11l-.75.43c-.06,0-.1.05-.13,0a.18.18,0,0,1-.1,0l-.06-.06a.23.23,0,0,0-.11-.07.42.42,0,0,0-.17,0,.92.92,0,0,0-.25.1.8.8,0,0,0-.21.15,1,1,0,0,0-.18.17.57.57,0,0,0-.13.21.74.74,0,0,0-.05.25.24.24,0,0,0,.06.19.22.22,0,0,0,.18.06,1.21,1.21,0,0,0,.34,0l.54-.14a1.92,1.92,0,0,1,.55-.07.67.67,0,0,1,.4.15.82.82,0,0,1,.23.4,2.14,2.14,0,0,1,.08.68,3.12,3.12,0,0,1-.09.74,3.7,3.7,0,0,1-.26.7,3.58,3.58,0,0,1-.41.63,2.9,2.9,0,0,1-.52.53v.64a.43.43,0,0,1,0,.19.33.33,0,0,1-.11.14l-.76.43a.08.08,0,0,1-.11,0,.21.21,0,0,1,0-.15v-.65a1.1,1.1,0,0,1-.51,0,.91.91,0,0,1-.38-.19,1,1,0,0,1-.24-.36,1.3,1.3,0,0,1-.09-.49.41.41,0,0,1,0-.16.26.26,0,0,1,.09-.11l.75-.44a.3.3,0,0,1,.13,0,.18.18,0,0,1,.09,0,.3.3,0,0,1,.07.08l.13.09a.29.29,0,0,0,.19,0,.75.75,0,0,0,.3-.1,2.66,2.66,0,0,0,.51-.4.73.73,0,0,0,.2-.49c0-.09,0-.15-.07-.18a.39.39,0,0,0-.23,0,1.63,1.63,0,0,0-.38.07l-.55.14a.83.83,0,0,1-.87-.15,1.53,1.53,0,0,1-.28-1.06,3,3,0,0,1,.08-.65,3.47,3.47,0,0,1,.56-1.27,3.51,3.51,0,0,1,.47-.55v-.65a.45.45,0,0,1,0-.2.25.25,0,0,1,.11-.13l.76-.44a.08.08,0,0,1,.11,0,.18.18,0,0,1,0,.14Z" style="fill:#37474f"></path><path d="M306,177.7c2.53-1.46,4.58-.28,4.58,2.64a10.14,10.14,0,0,1-4.58,7.94c-2.53,1.46-4.59.27-4.59-2.65A10.13,10.13,0,0,1,306,177.7Z" style="fill:#BA68C8"></path><path d="M306.47,179.58a1.05,1.05,0,0,1,.47,0,.91.91,0,0,1,.36.2,1.05,1.05,0,0,1,.33.77.5.5,0,0,1,0,.16.22.22,0,0,1-.09.1l-.76.44a.24.24,0,0,1-.13,0,.19.19,0,0,1-.1-.05l0-.06-.11-.06a.3.3,0,0,0-.17,0,.72.72,0,0,0-.26.1l-.21.14-.18.18a.72.72,0,0,0-.12.21.53.53,0,0,0-.05.25.31.31,0,0,0,.05.19.25.25,0,0,0,.19.06,1.85,1.85,0,0,0,.34-.05l.53-.14A1.68,1.68,0,0,1,307,182a.62.62,0,0,1,.39.15.77.77,0,0,1,.24.39,2.59,2.59,0,0,1,.08.68,3.06,3.06,0,0,1-.09.74,4.3,4.3,0,0,1-.26.71,4.25,4.25,0,0,1-.41.63,3.73,3.73,0,0,1-.52.53v.63a.37.37,0,0,1-.05.2.28.28,0,0,1-.1.13l-.76.44a.09.09,0,0,1-.11,0,.2.2,0,0,1-.05-.14v-.66a1.06,1.06,0,0,1-.5,0,1,1,0,0,1-.38-.19,1,1,0,0,1-.25-.36,1.93,1.93,0,0,1-.09-.5.34.34,0,0,1,0-.16s0-.09.08-.1l.76-.44a.19.19,0,0,1,.13,0,.12.12,0,0,1,.09,0,.45.45,0,0,1,.07.07.4.4,0,0,0,.12.1.6.6,0,0,0,.2,0,.59.59,0,0,0,.29-.11,1.93,1.93,0,0,0,.51-.4.68.68,0,0,0,.21-.48.19.19,0,0,0-.08-.18.43.43,0,0,0-.22,0,3,3,0,0,0-.39.08l-.55.14a.84.84,0,0,1-.87-.15,1.62,1.62,0,0,1-.27-1.07,2.85,2.85,0,0,1,.07-.64,3.41,3.41,0,0,1,.22-.66,3.5,3.5,0,0,1,.35-.62,3.87,3.87,0,0,1,.46-.54v-.66a.45.45,0,0,1,.05-.19.33.33,0,0,1,.11-.14l.76-.44a.08.08,0,0,1,.1,0,.16.16,0,0,1,.05.14Z" style="fill:#37474f"></path><path d="M318.18,170.64c2.53-1.46,4.58-.27,4.58,2.65a10.12,10.12,0,0,1-4.58,7.93c-2.53,1.47-4.58.28-4.58-2.64A10.14,10.14,0,0,1,318.18,170.64Z" style="fill:#BA68C8"></path><path d="M318.69,172.53a.93.93,0,0,1,.47,0,.8.8,0,0,1,.36.2,1,1,0,0,1,.24.34,1,1,0,0,1,.09.42.29.29,0,0,1,0,.16.2.2,0,0,1-.08.11l-.76.44a.27.27,0,0,1-.13,0,.24.24,0,0,1-.1-.05l-.05-.06a.41.41,0,0,0-.11-.07.47.47,0,0,0-.17,0,.72.72,0,0,0-.26.1l-.21.14a.77.77,0,0,0-.18.18,1.07,1.07,0,0,0-.13.21.66.66,0,0,0-.05.25.25.25,0,0,0,.06.19.3.3,0,0,0,.18.06,1.34,1.34,0,0,0,.35-.06l.53-.13a1.72,1.72,0,0,1,.56-.08.67.67,0,0,1,.39.15.87.87,0,0,1,.24.4,2.53,2.53,0,0,1,.08.68,3.07,3.07,0,0,1-.1.74,3.46,3.46,0,0,1-.26.7,3.27,3.27,0,0,1-.4.64,4.34,4.34,0,0,1-.52.53v.63a.53.53,0,0,1-.05.2.29.29,0,0,1-.11.13l-.75.44s-.08,0-.11,0a.16.16,0,0,1-.05-.14v-.66a1.21,1.21,0,0,1-.5,0,.82.82,0,0,1-.38-.2.86.86,0,0,1-.25-.36,1.3,1.3,0,0,1-.09-.49.32.32,0,0,1,0-.16.24.24,0,0,1,.08-.11l.76-.43a.2.2,0,0,1,.13-.05l.09,0,.07.08a.38.38,0,0,0,.12.09.32.32,0,0,0,.2,0,.59.59,0,0,0,.29-.1,2.32,2.32,0,0,0,.51-.4.7.7,0,0,0,.21-.49.19.19,0,0,0-.08-.18.36.36,0,0,0-.22,0,1.92,1.92,0,0,0-.39.08l-.55.14a.85.85,0,0,1-.87-.16,1.59,1.59,0,0,1-.28-1.06,2.87,2.87,0,0,1,.08-.64,3.2,3.2,0,0,1,.22-.66,4.19,4.19,0,0,1,.34-.62,3.5,3.5,0,0,1,.47-.54v-.66a.37.37,0,0,1,.05-.2.24.24,0,0,1,.11-.13l.75-.44a.09.09,0,0,1,.11,0,.2.2,0,0,1,.05.14Z" style="fill:#37474f"></path><path d="M330.4,163.59c2.53-1.46,4.58-.28,4.58,2.65a10.12,10.12,0,0,1-4.58,7.93c-2.53,1.46-4.58.28-4.58-2.64A10.12,10.12,0,0,1,330.4,163.59Z" style="fill:#BA68C8"></path><path d="M330.91,165.48a.93.93,0,0,1,.47,0,.91.91,0,0,1,.36.2,1,1,0,0,1,.23.34,1.28,1.28,0,0,1,.1.43.47.47,0,0,1,0,.16.24.24,0,0,1-.08.11l-.76.43c-.06,0-.1,0-.13,0a.21.21,0,0,1-.1,0,.17.17,0,0,0-.06-.06.26.26,0,0,0-.1-.07.5.5,0,0,0-.18,0,.68.68,0,0,0-.25.1.8.8,0,0,0-.21.15,1,1,0,0,0-.18.17.71.71,0,0,0-.18.46.24.24,0,0,0,.06.19.22.22,0,0,0,.18.06,1.93,1.93,0,0,0,.35,0l.53-.14a1.63,1.63,0,0,1,.55-.07.67.67,0,0,1,.4.15.82.82,0,0,1,.23.4,2.14,2.14,0,0,1,.08.68,3.12,3.12,0,0,1-.09.74,3.7,3.7,0,0,1-.26.7,4.18,4.18,0,0,1-.4.63,3.74,3.74,0,0,1-.52.53v.64a.45.45,0,0,1-.05.19.33.33,0,0,1-.11.14l-.76.43a.08.08,0,0,1-.11,0,.21.21,0,0,1,0-.15v-.65a1.05,1.05,0,0,1-.5,0,.89.89,0,0,1-.39-.19,1,1,0,0,1-.24-.36,1.31,1.31,0,0,1-.09-.5.5.5,0,0,1,0-.16.3.3,0,0,1,.09-.1l.75-.44a.3.3,0,0,1,.13,0,.18.18,0,0,1,.09,0,.3.3,0,0,1,.07.08l.13.09a.38.38,0,0,0,.19,0,.65.65,0,0,0,.3-.11,2.29,2.29,0,0,0,.51-.39.73.73,0,0,0,.2-.49c0-.09,0-.15-.07-.18a.39.39,0,0,0-.23,0,1.63,1.63,0,0,0-.38.07l-.55.14a.83.83,0,0,1-.87-.15,1.53,1.53,0,0,1-.28-1.06,3,3,0,0,1,.08-.65,3.47,3.47,0,0,1,.56-1.27,3.51,3.51,0,0,1,.47-.55v-.65a.45.45,0,0,1,0-.2.33.33,0,0,1,.11-.14l.76-.43a.08.08,0,0,1,.11,0,.18.18,0,0,1,.05.14Z" style="fill:#37474f"></path><path d="M273.22,228.35a2.59,2.59,0,0,1-1.35-.35,3.41,3.41,0,0,1-1.48-3.16v-59a9.92,9.92,0,0,1,4.47-7.76l82.88-47.85a3.06,3.06,0,0,1,5,2.87v59a9.93,9.93,0,0,1-4.48,7.76l-82.88,47.85-.24-.43.24.43A4.3,4.3,0,0,1,273.22,228.35Zm86.65-117.8a3.39,3.39,0,0,0-1.64.52l-82.88,47.85a8.83,8.83,0,0,0-4,6.91v59a2.55,2.55,0,0,0,1,2.32,2.52,2.52,0,0,0,2.5-.3L357.74,179a8.83,8.83,0,0,0,4-6.91v-59a2.52,2.52,0,0,0-1-2.32A1.71,1.71,0,0,0,359.87,110.55Z" style="fill:#BA68C8"></path><path d="M281.34,132.66a2.93,2.93,0,0,1,1.06-.4,1.41,1.41,0,0,1,.76.1,1.05,1.05,0,0,1,.46.45,1.48,1.48,0,0,1,.17.63.46.46,0,0,1-.07.27.53.53,0,0,1-.17.19l-.63.36a.28.28,0,0,1-.23.06.4.4,0,0,1-.13-.13.65.65,0,0,0-.41-.29,1.27,1.27,0,0,0-.81.25,2.79,2.79,0,0,0-.81.72,2.53,2.53,0,0,0-.25.45,1.25,1.25,0,0,0-.09.46.72.72,0,0,0,.09.4.36.36,0,0,0,.29.13,2.06,2.06,0,0,0,.53-.08l.82-.22a4.2,4.2,0,0,1,.93-.17,1.09,1.09,0,0,1,.63.13.9.9,0,0,1,.37.46,2.31,2.31,0,0,1,.12.81,3.55,3.55,0,0,1-.18,1.09,4.69,4.69,0,0,1-.51,1.09,6.07,6.07,0,0,1-.81,1,5.82,5.82,0,0,1-1.09.81,3.54,3.54,0,0,1-.95.39,1.71,1.71,0,0,1-.81,0,1,1,0,0,1-.57-.41,1.59,1.59,0,0,1-.24-.82.39.39,0,0,1,.07-.27.46.46,0,0,1,.17-.19l.63-.36a.28.28,0,0,1,.23-.06.23.23,0,0,1,.13.14,1.43,1.43,0,0,0,.15.22.4.4,0,0,0,.25.13.85.85,0,0,0,.38,0,2,2,0,0,0,.56-.25,3.64,3.64,0,0,0,.52-.35,2.57,2.57,0,0,0,.44-.43,2.36,2.36,0,0,0,.31-.49,1.36,1.36,0,0,0,.11-.53.42.42,0,0,0-.12-.35.5.5,0,0,0-.38-.07,3.34,3.34,0,0,0-.63.14c-.25.07-.54.15-.87.22a2.67,2.67,0,0,1-.79.11.86.86,0,0,1-.88-.64,3,3,0,0,1-.1-.87,3.86,3.86,0,0,1,.17-1.09,5.39,5.39,0,0,1,.5-1.06,5.53,5.53,0,0,1,.75-.94A4,4,0,0,1,281.34,132.66Z" style="fill:#BA68C8"></path><path d="M289.09,128.3c.07,0,.13,0,.17,0a.22.22,0,0,1,.08.18v.85a.56.56,0,0,1-.08.27.4.4,0,0,1-.17.19l-1.6.93v6.54a.56.56,0,0,1-.08.27.46.46,0,0,1-.17.19l-.72.42a.13.13,0,0,1-.17,0,.2.2,0,0,1-.07-.18v-6.54l-1.61.93c-.07,0-.13,0-.17,0a.21.21,0,0,1-.08-.18v-.85a.56.56,0,0,1,.08-.27.4.4,0,0,1,.17-.19Z" style="fill:#BA68C8"></path><path d="M292.54,126.31c.09,0,.17-.06.21,0a.53.53,0,0,1,.13.23l2.19,6.27a.22.22,0,0,1,0,.08.68.68,0,0,1-.07.27.58.58,0,0,1-.17.2l-.65.37c-.12.07-.2.08-.25,0a.33.33,0,0,1-.1-.14l-.38-1.1-2.83,1.63-.38,1.55a1.43,1.43,0,0,1-.1.25.6.6,0,0,1-.25.25l-.64.37c-.07,0-.13,0-.17,0a.22.22,0,0,1-.08-.18s0-.07,0-.09l2.19-8.81a1.74,1.74,0,0,1,.13-.37.58.58,0,0,1,.21-.23Zm.49,5-1-2.84-1,4Z" style="fill:#BA68C8"></path><path d="M298.44,122.9c.75-.43,1.31-.52,1.7-.28s.58.76.58,1.58a4.65,4.65,0,0,1-.3,1.66,4.38,4.38,0,0,1-.88,1.42l1.24,2.23a.25.25,0,0,1,0,.12.63.63,0,0,1-.05.22.41.41,0,0,1-.14.15l-.76.44c-.12.07-.21.08-.27,0a.53.53,0,0,1-.12-.14l-1.17-2.1-1.19.69v2.78a.54.54,0,0,1-.07.26.5.5,0,0,1-.17.2l-.73.42a.17.17,0,0,1-.17,0,.26.26,0,0,1-.07-.19v-7.7a.68.68,0,0,1,.07-.27.46.46,0,0,1,.17-.19Zm-1.34,4.54,1.3-.75a2.56,2.56,0,0,0,.81-.71,1.82,1.82,0,0,0,.31-1.08c0-.45-.11-.69-.31-.72a1.25,1.25,0,0,0-.81.24l-1.3.75Z" style="fill:#BA68C8"></path><path d="M306,118.55a.15.15,0,0,1,.17,0,.22.22,0,0,1,.07.19v.84a.54.54,0,0,1-.07.27.49.49,0,0,1-.17.2l-1.61.93v6.53a.54.54,0,0,1-.07.27.4.4,0,0,1-.17.19l-.72.42c-.07,0-.13,0-.17,0a.19.19,0,0,1-.08-.18v-6.54l-1.61.93a.15.15,0,0,1-.17,0,.26.26,0,0,1-.07-.19v-.85a.77.77,0,0,1,.07-.27.53.53,0,0,1,.17-.19Z" style="fill:#BA68C8"></path><path d="M313,122.85c-.11.05-.18.06-.24,0a.57.57,0,0,1-.11-.1l-2.51-3.51v4.91a.54.54,0,0,1-.07.27.46.46,0,0,1-.17.19l-.72.42c-.07,0-.13,0-.17,0a.19.19,0,0,1-.08-.18v-7.71a.56.56,0,0,1,.08-.26.38.38,0,0,1,.17-.2l.62-.36c.1-.06.18-.07.23,0a.76.76,0,0,1,.12.1l2.51,3.52V115a.54.54,0,0,1,.07-.26.42.42,0,0,1,.17-.2l.72-.41a.15.15,0,0,1,.17,0,.22.22,0,0,1,.07.19V122a.54.54,0,0,1-.07.27.4.4,0,0,1-.17.19Z" style="fill:#BA68C8"></path><path d="M319.44,117.64a.14.14,0,0,1,.17,0,.23.23,0,0,1,.07.18v.85a.68.68,0,0,1-.07.27.46.46,0,0,1-.17.19l-3.93,2.27a.13.13,0,0,1-.17,0,.2.2,0,0,1-.07-.18v-7.71a.6.6,0,0,1,.07-.27.46.46,0,0,1,.17-.19l3.85-2.23a.19.19,0,0,1,.18,0,.26.26,0,0,1,.07.19v.84a.68.68,0,0,1-.07.27.51.51,0,0,1-.18.2L316.48,114v1.9l2.69-1.55a.15.15,0,0,1,.17,0,.22.22,0,0,1,.07.19v.85a.54.54,0,0,1-.07.26.5.5,0,0,1-.17.2l-2.69,1.55v2Z" style="fill:#BA68C8"></path><path d="M323.68,112.71l-.77,4a1.52,1.52,0,0,1-.12.36.45.45,0,0,1-.2.23l-.72.42a.18.18,0,0,1-.21,0,.38.38,0,0,1-.1-.24l-1.15-6.86s0-.07,0-.09a.68.68,0,0,1,.07-.27.46.46,0,0,1,.17-.19l.67-.39a.21.21,0,0,1,.17,0s.09.08.1.19l.75,4.62.67-3.57a1.73,1.73,0,0,1,.08-.26.53.53,0,0,1,.23-.26L324,110c.11-.06.19-.06.23,0a.56.56,0,0,1,.09.17l.66,2.8.75-5.49a.67.67,0,0,1,.11-.31.46.46,0,0,1,.17-.17l.66-.38a.15.15,0,0,1,.17,0,.22.22,0,0,1,.07.19.46.46,0,0,1,0,.1l-1.14,8.18a1.08,1.08,0,0,1-.11.36.52.52,0,0,1-.21.23l-.72.42c-.09,0-.16,0-.2,0a.49.49,0,0,1-.11-.23Z" style="fill:#BA68C8"></path><path d="M329.78,107.9a6.22,6.22,0,0,1,.19-1.42,6,6,0,0,1,.52-1.31,5.78,5.78,0,0,1,.84-1.14,4.93,4.93,0,0,1,1.16-.9,2.93,2.93,0,0,1,1.28-.47,1.26,1.26,0,0,1,.81.18,1,1,0,0,1,.42.53,2.11,2.11,0,0,1,.13.59.45.45,0,0,1-.06.27.42.42,0,0,1-.18.19l-.72.42c-.07,0-.12,0-.16,0a.18.18,0,0,1-.08-.09,1.5,1.5,0,0,0-.1-.16.6.6,0,0,0-.24-.19.91.91,0,0,0-.43-.06,1.7,1.7,0,0,0-.67.25,2.93,2.93,0,0,0-1.08,1.1,3.35,3.35,0,0,0-.42,1.54c0,.31,0,.64,0,1s0,.66,0,1c0,.65.16,1.05.42,1.19a1.14,1.14,0,0,0,1.08-.18,3.26,3.26,0,0,0,.61-.44,2.71,2.71,0,0,0,.47-.59,2.9,2.9,0,0,0,.32-.74,3.83,3.83,0,0,0,.11-.93v-.1l-1.09.63a.13.13,0,0,1-.17,0c-.05,0-.07-.09-.07-.18V107a.54.54,0,0,1,.07-.27.46.46,0,0,1,.17-.19l2.06-1.19a.12.12,0,0,1,.16,0,.21.21,0,0,1,.08.18v1.32a5.79,5.79,0,0,1-.68,2.74,5.44,5.44,0,0,1-.85,1.18,5.84,5.84,0,0,1-1.19.93,3.1,3.1,0,0,1-1.18.44,1.2,1.2,0,0,1-.84-.19,1.47,1.47,0,0,1-.5-.74,3.82,3.82,0,0,1-.19-1.2c0-.15,0-.32,0-.5v-1.12C329.77,108.23,329.77,108.06,329.78,107.9Z" style="fill:#BA68C8"></path><path d="M339.16,99.4c.1-.06.17-.07.22,0a.65.65,0,0,1,.12.24l2.19,6.27a.17.17,0,0,1,0,.08.54.54,0,0,1-.07.26.5.5,0,0,1-.17.2l-.64.37c-.12.07-.21.08-.26,0a.26.26,0,0,1-.09-.14l-.39-1.1-2.82,1.63-.39,1.55a1.18,1.18,0,0,1-.1.25.6.6,0,0,1-.25.25l-.64.37a.13.13,0,0,1-.17,0s-.07-.09-.07-.18v-.09l2.2-8.8a1.42,1.42,0,0,1,.12-.38.54.54,0,0,1,.22-.23Zm.49,4.95-1-2.83-1,4Z" style="fill:#BA68C8"></path><path d="M345.45,100l1.7-4.91c0-.06.06-.14.12-.27a.7.7,0,0,1,.26-.28l.61-.35a.13.13,0,0,1,.17,0,.21.21,0,0,1,.07.18v7.71a.54.54,0,0,1-.07.27.46.46,0,0,1-.17.19l-.72.42c-.07,0-.13,0-.17,0a.21.21,0,0,1-.08-.18V98.13L346,101.49a2.86,2.86,0,0,1-.12.27.74.74,0,0,1-.21.22l-.46.26c-.09.05-.16.06-.21,0a.46.46,0,0,1-.12-.12l-1.17-2v4.66a.54.54,0,0,1-.07.27.46.46,0,0,1-.17.19l-.72.42c-.07,0-.13,0-.17,0a.21.21,0,0,1-.08-.18V97.78a.56.56,0,0,1,.08-.27.4.4,0,0,1,.17-.19l.6-.35c.12-.07.21-.08.27,0a.66.66,0,0,1,.12.12Z" style="fill:#BA68C8"></path><path d="M354,97.72a.15.15,0,0,1,.17,0,.26.26,0,0,1,.07.19v.85a.68.68,0,0,1-.07.26.5.5,0,0,1-.17.2L350,101.48a.17.17,0,0,1-.17,0,.22.22,0,0,1-.07-.19v-7.7a.54.54,0,0,1,.07-.27.4.4,0,0,1,.17-.19l3.85-2.23c.07,0,.13,0,.17,0a.21.21,0,0,1,.08.18v.85a.56.56,0,0,1-.08.27.4.4,0,0,1-.17.19L351,94.06V96l2.69-1.56a.14.14,0,0,1,.17,0,.2.2,0,0,1,.07.18v.85a.54.54,0,0,1-.07.27.53.53,0,0,1-.17.19L351,97.45v2Z" style="fill:#BA68C8"></path><path d="M273.22,150.39a2.68,2.68,0,0,1-1.35-.34,3.44,3.44,0,0,1-1.48-3.17v-8.54a9.88,9.88,0,0,1,4.47-7.75l82.88-47.85a3.06,3.06,0,0,1,5,2.87v8.53a9.93,9.93,0,0,1-4.48,7.76l-82.88,47.85A4.3,4.3,0,0,1,273.22,150.39Zm86.65-67.32a3.36,3.36,0,0,0-1.64.51l-82.88,47.85a8.83,8.83,0,0,0-4,6.91v8.54a2.11,2.11,0,0,0,3.5,2l82.88-47.85a8.83,8.83,0,0,0,4-6.91V85.61a2.52,2.52,0,0,0-1-2.32A1.71,1.71,0,0,0,359.87,83.07Z" style="fill:#BA68C8"></path><g id="freepik--Shine--inject-2"><path d="M272.69,126.53a.37.37,0,0,1-.37-.35l0-.36a1.91,1.91,0,0,0-1.75-1.77l-.36,0a.38.38,0,0,1-.35-.38.39.39,0,0,1,.35-.37l.36,0h0a1.9,1.9,0,0,0,1.77-1.75l0-.36a.38.38,0,0,1,.38-.35.39.39,0,0,1,.37.35l0,.37a1.89,1.89,0,0,0,1.75,1.76l.36,0a.38.38,0,0,1,.35.38.37.37,0,0,1-.35.37l-.37,0a1.89,1.89,0,0,0-1.76,1.74l0,.36A.38.38,0,0,1,272.69,126.53Zm-.95-2.87a2.63,2.63,0,0,1,1,1,2.73,2.73,0,0,1,1-1,2.65,2.65,0,0,1-1-1A2.76,2.76,0,0,1,271.74,123.66Z" style="fill:#BA68C8"></path><path d="M263.84,220.56a.38.38,0,0,1-.37-.35l0-.36a1.89,1.89,0,0,0-1.74-1.77l-.36,0a.38.38,0,0,1-.35-.38.39.39,0,0,1,.35-.37l.36,0h0a1.9,1.9,0,0,0,1.77-1.75l0-.36a.38.38,0,0,1,.75,0l0,.36A1.9,1.9,0,0,0,266,217.3l.36,0a.38.38,0,0,1,0,.75l-.37,0a1.89,1.89,0,0,0-1.76,1.74l0,.36A.38.38,0,0,1,263.84,220.56Zm-.95-2.88a2.73,2.73,0,0,1,1,1,2.65,2.65,0,0,1,1-1,2.65,2.65,0,0,1-1-1A2.73,2.73,0,0,1,262.89,217.68Z" style="fill:#BA68C8"></path><path d="M366.53,105.11a.38.38,0,0,1-.37-.35l0-.36a1.91,1.91,0,0,0-1.75-1.77l-.36,0a.38.38,0,0,1,0-.75l.36,0h0a1.9,1.9,0,0,0,1.77-1.75l0-.36a.38.38,0,0,1,.75,0l0,.36a1.9,1.9,0,0,0,1.75,1.77l.36,0a.38.38,0,0,1,0,.75l-.37,0a1.91,1.91,0,0,0-1.76,1.75l0,.36A.38.38,0,0,1,366.53,105.11Zm-.95-2.88a2.73,2.73,0,0,1,1,1,2.65,2.65,0,0,1,1-1,2.73,2.73,0,0,1-1-1A2.73,2.73,0,0,1,365.58,102.23Z" style="fill:#BA68C8"></path><path d="M264.14,143.73a2.4,2.4,0,1,1,1.8-2.88A2.4,2.4,0,0,1,264.14,143.73Zm-.91-3.95a1.65,1.65,0,1,0,2,1.24A1.64,1.64,0,0,0,263.23,139.78Z" style="fill:#BA68C8"></path><path d="M258.72,210.37a2.4,2.4,0,1,1,1.81-2.88A2.4,2.4,0,0,1,258.72,210.37Zm-.91-4a1.65,1.65,0,1,0,2,1.24A1.65,1.65,0,0,0,257.81,206.42Z" style="fill:#BA68C8"></path><path d="M374.86,113.5a2.4,2.4,0,1,1,1.8-2.88A2.4,2.4,0,0,1,374.86,113.5Zm-.91-4a1.65,1.65,0,1,0,2,1.24A1.64,1.64,0,0,0,374,109.55Z" style="fill:#BA68C8"></path><path d="M262.68,128.73a.37.37,0,0,1-.45-.28l-.28-1.22a.37.37,0,0,1,.28-.45.38.38,0,0,1,.45.28l.28,1.22A.38.38,0,0,1,262.68,128.73Z" style="fill:#BA68C8"></path><path d="M262.12,129.63l-1.22.28a.37.37,0,0,1-.45-.28.37.37,0,0,1,.28-.45l1.22-.28a.37.37,0,0,1,.45.28A.38.38,0,0,1,262.12,129.63Z" style="fill:#BA68C8"></path><path d="M263.31,131.48a.38.38,0,0,1-.45-.28l-.28-1.22a.37.37,0,0,1,.28-.45.38.38,0,0,1,.45.28l.28,1.22A.38.38,0,0,1,263.31,131.48Z" style="fill:#BA68C8"></path><path d="M264.86,129l-1.22.28a.38.38,0,0,1-.45-.28.38.38,0,0,1,.29-.45l1.21-.28a.37.37,0,1,1,.17.73Z" style="fill:#BA68C8"></path><path d="M363.55,180.13a.37.37,0,0,1,.4.32l.05.36a1.89,1.89,0,0,0,1.86,1.64h.37a.39.39,0,0,1,.37.35.38.38,0,0,1-.32.4l-.36.05h0a1.9,1.9,0,0,0-1.64,1.87v.36a.37.37,0,0,1-.35.37.37.37,0,0,1-.39-.32l0-.36a1.9,1.9,0,0,0-1.87-1.64h-.37a.38.38,0,0,1-.37-.35.37.37,0,0,1,.33-.39l.36-.05a1.91,1.91,0,0,0,1.64-1.87v-.36A.37.37,0,0,1,363.55,180.13Zm1.15,2.79a2.62,2.62,0,0,1-1-.9,2.56,2.56,0,0,1-.9,1,2.73,2.73,0,0,1,1,.91A2.66,2.66,0,0,1,364.7,182.92Z" style="fill:#BA68C8"></path><path d="M368.13,162.34a2.4,2.4,0,1,1-1.6,3A2.41,2.41,0,0,1,368.13,162.34Zm1.19,3.88a1.65,1.65,0,1,0-2.07-1.09A1.64,1.64,0,0,0,369.32,166.22Z" style="fill:#BA68C8"></path><path d="M372.29,175.09a.38.38,0,0,1,.47.25l.36,1.19a.37.37,0,0,1-.24.47.38.38,0,0,1-.47-.25l-.37-1.19A.38.38,0,0,1,372.29,175.09Z" style="fill:#BA68C8"></path><path d="M372.79,174.15l1.19-.36a.37.37,0,1,1,.22.71l-1.19.37a.38.38,0,0,1-.22-.72Z" style="fill:#BA68C8"></path><path d="M371.46,172.39a.38.38,0,0,1,.47.25l.37,1.2a.37.37,0,0,1-.25.46.38.38,0,0,1-.47-.25l-.37-1.19A.38.38,0,0,1,371.46,172.39Z" style="fill:#BA68C8"></path><path d="M370.09,175l1.2-.37a.37.37,0,0,1,.46.25.38.38,0,0,1-.25.47l-1.19.37a.38.38,0,0,1-.22-.72Z" style="fill:#BA68C8"></path><path d="M265,199.09a.38.38,0,0,1-.45-.28l-.28-1.22a.38.38,0,0,1,.28-.45.37.37,0,0,1,.45.28l.29,1.22A.38.38,0,0,1,265,199.09Z" style="fill:#BA68C8"></path><path d="M264.47,200l-1.22.28a.36.36,0,0,1-.44-.28.37.37,0,0,1,.28-.45l1.22-.28a.36.36,0,0,1,.44.28A.37.37,0,0,1,264.47,200Z" style="fill:#BA68C8"></path><path d="M265.67,201.84a.38.38,0,0,1-.45-.28l-.28-1.22a.37.37,0,0,1,.73-.17l.28,1.22A.38.38,0,0,1,265.67,201.84Z" style="fill:#BA68C8"></path><path d="M267.22,199.35l-1.22.29a.38.38,0,0,1-.45-.29.37.37,0,0,1,.28-.44l1.22-.29a.37.37,0,0,1,.45.28A.37.37,0,0,1,267.22,199.35Z" style="fill:#BA68C8"></path><path d="M369.37,121.41a.38.38,0,0,1-.45-.28l-.28-1.22a.37.37,0,0,1,.28-.45.37.37,0,0,1,.45.28l.28,1.22A.37.37,0,0,1,369.37,121.41Z" style="fill:#BA68C8"></path><path d="M368.81,122.3l-1.22.28a.37.37,0,0,1-.45-.28.38.38,0,0,1,.28-.45l1.22-.28a.37.37,0,0,1,.45.28A.37.37,0,0,1,368.81,122.3Z" style="fill:#BA68C8"></path><path d="M370,124.15a.36.36,0,0,1-.45-.28l-.28-1.22a.36.36,0,0,1,.28-.44.37.37,0,0,1,.45.28l.28,1.21A.37.37,0,0,1,370,124.15Z" style="fill:#BA68C8"></path><path d="M371.56,121.67l-1.22.28a.38.38,0,0,1-.45-.28.38.38,0,0,1,.28-.45l1.22-.28a.37.37,0,1,1,.17.73Z" style="fill:#BA68C8"></path></g></g></g></svg>